<svg xmlns="http://www.w3.org/2000/svg" xmlns:xlink="http://www.w3.org/1999/xlink" enable-background="new 0 0 3000 3000" viewBox="0 0 3000 3000" id="man-holding-pencil-and-drawing-pot"><switch><g><g><g><g><g opacity=".07"><polygon points="1096.109 2041.904 1499.051 2268.216 1502.842 2215.894 1096.109 1991.035"></polygon><polygon points="1421.705 2245.468 1477.929 2245.468 1334.293 2529.606 1278.07 2529.606"></polygon><polygon points="1537.846 2224.964 1567.297 2184.804 1855.031 2189.587 1825.58 2229.747"></polygon><g><polygon points="1223.902 2513.794 1362.915 2592.373 1970.723 2242.031 1831.71 2163.453"></polygon></g><g><polygon points="1463.479 2251.625 1617.927 2341.38 1662.029 2315.918 1507.581 2226.162"></polygon></g><g><polygon points="1415.395 2266.784 1453.049 2288.068 1614.572 2194.813 1576.918 2173.529"></polygon></g></g><g><g><g><polygon fill="#7c4a26" points="1096.064 2043.776 1135.69 2020.748 1531.822 1191.374 1492.196 1214.402"></polygon></g><g><polygon fill="#b37d4b" points="1492.196 1214.402 1531.822 1191.374 1500.25 1158.154 1460.624 1181.182"></polygon></g><g><polygon fill="#c27a36" points="1460.624 1181.182 1064.517 2010.571 1096.064 2043.776 1492.196 1214.402"></polygon></g></g></g><g><g><polygon fill="#7d4a25" points="1555.812 881.431 1530.339 866.627 1534.618 2215.408 1560.092 2230.211"></polygon></g><g><polygon fill="#d29358" points="1590.017 861.683 1564.543 846.879 1530.339 866.627 1555.812 881.431"></polygon></g><g><polygon fill="#8f5a27" points="1555.812 881.431 1560.092 2230.211 1594.296 2210.463 1590.017 861.683"></polygon></g></g><g><g><g><polygon fill="#6e4d2e" points="1348.233 2261.02 1334.081 2252.795 1334.211 2298.64 1348.363 2306.864"></polygon></g><g><polygon fill="#d39458" points="1806.918 1996.198 1792.766 1987.974 1334.081 2252.795 1348.233 2261.02"></polygon></g><g><polygon fill="#ba713a" points="1348.233 2261.02 1348.363 2306.864 1807.048 2042.042 1806.918 1996.198"></polygon></g></g></g><g><g><polygon fill="#cb8e55" points="1711.703 801.334 1686.229 786.53 1643.968 818.071 1669.442 832.875"></polygon></g><g><polygon fill="#7c4a26" points="1669.442 832.875 1643.968 818.071 1796.127 2218.533 1821.601 2233.337"></polygon></g><g><polygon fill="#9c622c" points="1711.703 801.334 1669.442 832.875 1821.601 2233.337 1864.6 2208.511"></polygon></g></g><g><g><polygon fill="#804d27" points="1435.092 961.035 1409.618 946.231 1265.212 2525.057 1290.686 2539.86"></polygon></g><g><polygon fill="#d59559" points="1477.419 943.739 1451.945 928.936 1409.618 946.231 1435.092 961.035"></polygon></g><g><polygon fill="#9c622c" points="1435.092 961.035 1290.686 2539.86 1333.66 2515.05 1477.419 943.739"></polygon></g></g><g><g><path fill="#543b23" d="M1550.485,2037.103c10.286,5.978,13.774,17.73,14.09,18.794l-101.896-59.215
								c-0.316-1.064-3.804-12.816-14.09-18.794L1550.485,2037.103z"></path><g><polygon fill="#69482c" points="1374.59 2097.413 1272.694 2038.198 1272.761 2061.709 1374.657 2120.925"></polygon></g><g><polygon fill="#ed9e53" points="1990.913 1741.579 1889.017 1682.364 1272.694 2038.198 1374.59 2097.413"></polygon></g><g><path fill="#ba713a" d="M1374.59,2097.413l0.067,23.511c6.359-3.671,127.177-73.426,136.87-79.022
									c41.743-24.1,52.483,12.089,53.048,13.994l118.383-68.348l118.357-68.333c0.553-2.55,11.053-51.003,52.796-75.103
									c9.692-5.596,130.511-75.35,136.87-79.022l-0.067-23.511L1374.59,2097.413z"></path></g></g></g><g><g><defs><polygon id="a" points="2162.382 1496.765 2160.17 716.18 1073.798 1343.396 1076.011 2123.981"></polygon></defs><clipPath id="b"><use overflow="visible" xlink:href="#a"></use></clipPath><path fill="#f2f2f2" d="M2217.098,1436.25l-0.733-258.732l-11.176,12.331l-33.736,0.877
								l-51.101,54.289v0l51.101-54.289l33.737-0.878l11.175-12.33l-0.075-26.164c-20.553-19.886-39.426-35.06-55.302-43.054
								c0.001,0,0.002-0.001,0.003-0.001c15.875,7.995,34.749,23.168,55.301,43.055l-0.18-63.57c-0.001,0-0.001,0-0.002,0.001
								l-1.144-404.232l-1214.844,701.39l1.893,667.43c13.305-32.307,38.802-71.088,73.714-114.29
								c-34.912,43.202-60.409,81.983-73.714,114.29l0.333,117.514l501.867-289.753c1.348-2.614,2.721-5.272,4.114-7.961
								c-1.391,2.688-2.765,5.348-4.113,7.962l156.935-90.606l556.041-321.03L2217.098,1436.25z M2028.423,1279.483
								c-3.731,8.187-7.508,16.567-11.318,25.102c1.301,0.558,2.635,1.172,3.954,1.76c-22.512-10.034-42.453-15.727-57.469-14.489
								c14.066-1.203,32.566,3.742,53.515,12.727c3.81-8.534,7.588-16.914,11.308-25.089c0.37-0.812,0.733-1.594,1.102-2.401
								c-0.364,0.796-0.728,1.589-1.094,2.392l47.327-55.198l0,0L2028.423,1279.483z M2041.219,1316.094
								c-1.311-0.68-2.608-1.333-3.908-1.99C2038.612,1314.762,2039.907,1315.412,2041.219,1316.094z M2034.238,1312.557
								c-1.483-0.735-2.956-1.451-4.421-2.154C2031.283,1311.107,2032.754,1311.82,2034.238,1312.557z M2027.45,1309.276
								c-1.578-0.743-3.149-1.475-4.704-2.179C2024.302,1307.802,2025.871,1308.531,2027.45,1309.276z M2040.176,1324.697
								l-20.806,3.45l0-0.001L2040.176,1324.697z M1663.516,1622.609c0.001-0.001,0.002-0.002,0.002-0.003
								c0.697-0.124,1.416-0.218,2.164-0.282C1664.941,1622.391,1664.218,1622.484,1663.516,1622.609z M1665.857,1622.307
								c0.482-0.038,0.982-0.059,1.493-0.071C1666.848,1622.254,1666.342,1622.266,1665.857,1622.307z M1691.678,1627.25
								c0.015,0.005,0.029,0.009,0.044,0.014c3.356,1.236,6.855,2.699,10.442,4.314
								C1698.572,1629.963,1695.062,1628.496,1691.678,1627.25z M1715.554,1638.13c1.476,0.777,2.964,1.576,4.46,2.395
								C1718.518,1639.706,1717.031,1638.907,1715.554,1638.13L1715.554,1638.13z M2102.124,1135.591L2102.124,1135.591
								c0.649-1.01,1.293-1.993,1.939-2.965c-6.487,9.85-13.626,21.962-21.337,36.056c-0.052,0.096-0.102,0.193-0.154,0.289
								c0.062-0.115,0.123-0.233,0.185-0.348C2089.661,1155.989,2096.145,1144.892,2102.124,1135.591z M2068.376,1152.965
								c3.151-1.671,6.28-3.315,9.391-4.939C2074.656,1149.65,2071.527,1151.295,2068.376,1152.965z M2081.247,1146.219
								c2.496-1.295,4.978-2.574,7.448-3.838C2086.226,1143.645,2083.743,1144.925,2081.247,1146.219z M2076.292,1180.798
								c-0.664,1.264-1.323,2.546-1.985,3.816C2074.969,1183.344,2075.628,1182.062,2076.292,1180.798z M2069.885,1193.157
								c-0.797,1.555-1.592,3.125-2.387,4.69C2068.292,1196.282,2069.088,1194.711,2069.885,1193.157z M2034.783,1171.245
								c1.474-0.821,2.944-1.638,4.411-2.45C2037.727,1169.607,2036.257,1170.423,2034.783,1171.245z M2049.689,1163.028
								c1.237-0.675,2.482-1.359,3.714-2.028C2052.172,1161.669,2050.927,1162.353,2049.689,1163.028z M2063.532,1205.695
								c-0.862,1.719-1.723,3.447-2.584,5.179C2061.809,1209.142,2062.671,1207.413,2063.532,1205.695z M2057.206,1218.453
								c-0.903,1.839-1.805,3.678-2.708,5.533C2055.4,1222.132,2056.303,1220.29,2057.206,1218.453z M2050.893,1231.44
								c-0.934,1.938-1.866,3.867-2.801,5.825C2049.027,1235.308,2049.96,1233.377,2050.893,1231.44z M2044.466,1244.908
								c-0.916,1.937-1.829,3.852-2.747,5.808C2042.637,1248.761,2043.551,1246.844,2044.466,1244.908z M2035.652,1263.733
								c-0.321,0.693-0.641,1.391-0.964,2.088C2035.009,1265.126,2035.332,1264.425,2035.652,1263.733z M1885.453,1378.052
								c0.841-1.327,1.673-2.624,2.507-3.928c-0.859,1.344-1.717,2.684-2.585,4.054
								C1885.401,1378.134,1885.426,1378.095,1885.453,1378.052z M1889.592,1371.573c-0.122,0.189-0.24,0.371-0.362,0.56
								C1889.351,1371.946,1889.472,1371.761,1889.592,1371.573z M1959.535,1292.375c1.211-0.225,2.474-0.376,3.762-0.494
								c-1.296,0.115-2.554,0.283-3.775,0.504C1959.526,1292.382,1959.53,1292.378,1959.535,1292.375z M2020.257,1179.407
								c1.31-0.743,2.607-1.471,3.912-2.208C2022.865,1177.936,2021.568,1178.663,2020.257,1179.407z M2104.417,1132.095
								c0.176-0.263,0.352-0.528,0.529-0.788C2104.769,1131.572,2104.595,1131.826,2104.417,1132.095z M2160.039,1107.853
								c-9.49-4.64-17.932-6.63-26.176-5.169c0.08-0.058,0.152-0.113,0.233-0.171
								C2141.301,1100.972,2150.07,1102.979,2160.039,1107.853z M2102.124,1135.59c-3.385,1.687-6.807,3.416-10.246,5.165
								C2095.317,1139.005,2098.739,1137.276,2102.124,1135.59L2102.124,1135.59z M1327.365,1684.662
								c-6.201,5.479-12.349,10.949-18.444,16.406C1315.016,1695.61,1321.164,1690.141,1327.365,1684.662z M1286.977,1720.88
								c-1.807,1.645-3.608,3.288-5.404,4.93C1283.369,1724.168,1285.17,1722.525,1286.977,1720.88z M1101.658,1427.642
								c-17.103,31.61-27.48,66.479-27.39,98.125c0.191,67.471,47.946,94.686,106.7,60.764
								c44.037-25.425,81.755-78.019,97.782-131.191c-16.026,53.172-53.745,105.767-97.783,131.192
								c-58.755,33.921-106.508,6.706-106.7-60.764C1074.177,1494.122,1084.555,1459.253,1101.658,1427.642z M1108.848,1415.188
								c-2.44,3.969-4.771,8.009-6.993,12.102C1104.078,1423.196,1106.408,1419.156,1108.848,1415.188z M1190.812,1812.244
								c-4.978,4.964-9.883,9.901-14.718,14.81C1180.929,1822.145,1185.834,1817.208,1190.812,1812.244z M1163.195,1840.266
								c-3.125,3.229-6.209,6.441-9.267,9.642C1156.986,1846.707,1160.071,1843.495,1163.195,1840.266z M1144.791,1859.543
								c-1.613,1.713-3.216,3.421-4.809,5.126C1141.575,1862.964,1143.177,1861.256,1144.791,1859.543z M1101.822,1906.968
								c-4.049,4.667-8.007,9.293-11.865,13.873C1093.815,1916.261,1097.773,1911.635,1101.822,1906.968z M1726.815,1644.353
								c2.284,1.313,4.578,2.653,6.891,4.042c0,0,0,0.001,0,0.001C1731.393,1647.006,1729.098,1645.666,1726.815,1644.353z
								 M1804.427,1516.775c14.382-26.008,28.725-51.4,42.584-75.178c2.051-3.518,4.093-7.004,6.184-10.548
								c-2.049,3.48-4.107,6.988-6.179,10.543C1833.156,1465.372,1818.81,1490.766,1804.427,1516.775z M1966.819,1352.258
								l-37.614,51.207l-14.942-28.618l14.942,28.616L1966.819,1352.258l29.718,12.332l11.63-18.563l-11.63,18.564
								L1966.819,1352.258z M2102.176,1352.317c38.521,25.242,76.89,54.043,106.658,77.412
								C2179.066,1406.36,2140.696,1377.558,2102.176,1352.317z" clip-path="url(#b)"></path></g><g><path fill="#d9d9d9" d="M1430.15,2033.96l534.647-308.68c-25.954-14.984-52.972-30.583-80.422-46.431
								l-534.647,308.679L1430.15,2033.96z"></path><g><g><g><g><polygon fill="#a4a4a4" points="2195.008 1515.725 2162.382 1496.765 2160.062 678.446 2192.688 697.405"></polygon></g><g><polygon fill="#fff" points="1076.118 2161.716 1043.493 2142.756 2162.382 1496.765 2195.008 1515.725"></polygon></g><g><polygon fill="#a4a4a4" points="1046.836 2212.434 1014.211 2193.474 1011.699 1307.64 1044.325 1326.6"></polygon></g><g><polygon fill="#fff" points="1044.325 1326.6 1011.699 1307.64 2189.344 627.727 2221.97 646.687"></polygon></g><g><path fill="#dedede" d="M1044.325,1326.6L2221.97,646.687l2.511,885.834l-1177.645,679.913L1044.325,1326.6z
												 M2195.008,1515.725l-2.32-818.32l-1118.89,645.991l2.32,818.32L2195.008,1515.725L2195.008,1515.725z"></path></g></g></g></g></g></g><g><g><g><polygon fill="#7d5733" points="1553.058 1080.208 1533.245 1068.693 1533.329 1098.127 1553.142 1109.641"></polygon></g><path fill="#d68b47" d="M1566.809,1049.315c22.717-13.116,33.128-37.069,37.025-48.704l120.588-69.621l19.813,11.514
								l-0.334,0.193c4.853-0.162,10.679-1.791,17.7-5.845c2.41-1.392,14.59-8.423,29.692-17.143l19.813,11.514
								c-15.102,8.719-27.281,15.751-29.692,17.143c-13.375,7.722-22.511,6.792-28.571,3.269l-12.172-7.074l-117.024,67.564
								c-3.896,11.634-14.307,35.587-37.025,48.704c-2.615,1.51-16.692,9.637-33.563,19.378l-19.813-11.514
								C1550.117,1058.953,1564.193,1050.826,1566.809,1049.315z"></path><g><path fill="#ba713a" d="M1623.647,1012.126c-3.896,11.634-14.307,35.588-37.025,48.704
									c-2.615,1.51-16.692,9.637-33.564,19.378l0.083,29.433l258.047-148.984l-0.083-29.434
									c-15.102,8.719-27.281,15.751-29.692,17.143c-22.743,13.131-33.23,1.242-37.179-5.862L1623.647,1012.126z"></path></g></g></g><g><g><g><polygon fill="#91552c" points="1495.619 870.167 1495.821 913.283 1560.489 950.864 1560.286 907.747"></polygon></g><g><polygon fill="#ba713a" points="1560.286 907.747 1560.489 950.864 1625.579 913.284 1625.377 870.167"></polygon></g><g><polygon fill="#e8974e" points="1495.619 870.167 1560.286 907.747 1625.377 870.167 1560.709 832.586"></polygon></g></g></g><polygon fill="#6e3f18" points="1598.516 870.985 1565.716 851.922 1523.694 876.186 1556.494 895.248"></polygon><g><g><polygon fill="#734421" points="1555.812 744.888 1530.339 730.084 1530.602 874.073 1556.076 888.877"></polygon></g><g><polygon fill="#d29358" points="1590.017 725.14 1564.543 710.336 1530.339 730.084 1555.812 744.888"></polygon></g><g><polygon fill="#9c622c" points="1555.812 744.888 1556.076 888.877 1590.281 869.129 1590.017 725.14"></polygon></g></g><g><g><g><polygon fill="#a17143" points="1668.22 987.118 1702.186 967.379 1702.223 954.298 1668.258 974.036"></polygon></g><g><polygon fill="#d6965a" points="1668.258 974.036 1702.223 954.298 1607.736 899.613 1573.77 919.351"></polygon></g><g><polygon fill="#735030" points="1573.77 919.351 1573.733 932.433 1668.22 987.118 1668.258 974.036"></polygon></g></g></g><g><g><path fill="#5c5c5c" d="M1583.449,2131.097c3.68-2.125,7.021-2.324,9.433-0.922l5.645,3.28
								c-2.413-1.402-5.753-1.202-9.434,0.923c-7.333,4.234-13.237,14.459-13.213,22.886c0.012,4.175,1.487,7.119,3.869,8.503
								l-5.644-3.28c-2.382-1.384-3.857-4.328-3.869-8.503C1570.212,2145.557,1576.116,2135.331,1583.449,2131.097z"></path><g><path fill="#757575" d="M1589.094,2134.377c-7.333,4.234-13.237,14.459-13.213,22.886
									c0.024,8.397,5.966,11.813,13.299,7.579c7.308-4.219,13.237-14.489,13.213-22.886
									C1602.369,2133.53,1596.401,2130.158,1589.094,2134.377z"></path></g></g></g><g><g><path fill="#4f4f4f" d="M1331.763,2274.244c3.681-2.125,7.021-2.324,9.434-0.922l5.644,3.28
								c-2.412-1.402-5.753-1.202-9.433,0.922c-7.333,4.234-13.237,14.46-13.213,22.886c0.012,4.175,1.487,7.119,3.869,8.503
								l-5.645-3.28c-2.382-1.384-3.857-4.328-3.869-8.503C1318.526,2288.703,1324.43,2278.478,1331.763,2274.244z"></path><g><path fill="#686868" d="M1337.407,2277.524c-7.333,4.234-13.237,14.459-13.213,22.886
									c0.024,8.397,5.966,11.813,13.299,7.579c7.308-4.219,13.237-14.489,13.213-22.886
									C1350.683,2276.677,1344.715,2273.305,1337.407,2277.524z"></path></g></g></g><g><g><path fill="#4f4f4f" d="M1820.978,2002.108c3.68-2.125,7.021-2.325,9.433-0.922l5.645,3.28
								c-2.412-1.402-5.753-1.203-9.433,0.922c-7.333,4.234-13.237,14.46-13.213,22.886c0.012,4.175,1.487,7.119,3.869,8.503
								l-5.645-3.28c-2.382-1.384-3.857-4.328-3.869-8.503C1807.741,2016.568,1813.645,2006.342,1820.978,2002.108z"></path><g><path fill="#686868" d="M1826.623,2005.388c-7.333,4.234-13.237,14.46-13.213,22.886
									c0.024,8.397,5.966,11.813,13.3,7.579c7.307-4.219,13.237-14.489,13.213-22.886
									C1839.898,2004.541,1833.93,2001.169,1826.623,2005.388z"></path></g></g></g></g><g><g opacity=".07"><ellipse cx="2140.897" cy="2506.363" rx="148.854" ry="256.989" transform="rotate(-79.159 2140.866 2506.252)"></ellipse><polygon points="2705.639 2537.708 2786.28 2618.699 2624.083 2612.084 1815.834 2313.779 1897.406 2239.394"></polygon></g><g><path fill="#1f6300" d="M2850,1200.349c0,1.86-0.801,2.457-1.667,2.725c-1.406,0.435-3.165-0.976-3.165-2.836
							c0-1.86,1.1-3.509,2.541-3.211C2849.089,1197.312,2850,1198.489,2850,1200.349z"></path><g><g><g><path fill="#858585" d="M2622.196,1243.976c-2.257-7.49-4.908-15.51-7.084-26.085
										c-5.177-19.484-60.52-5.063-66.85,13.793c0.046,8.733-1.414,18.821-1.784,30.728
										C2546.264,1269.278,2624.131,1250.399,2622.196,1243.976z"></path><path fill="#f0c7ad" d="M2613.738,1186.544c-2.122,21.265-1.006,57.833-1.006,57.833l-53.684,6.84
										c0,0,7.641-54.014,11.811-68.446C2570.994,1182.301,2614.187,1182.041,2613.738,1186.544z"></path><path fill="#e3e3e3" d="M2619.577,1235.714c-0.94-5.299-57.228,18.605-65.823,4.816
										c0.14,26.132-10.459,88.445-9.411,126.111c0.349,12.556,43.23,67.481,62.424,56.765
										C2616.018,1418.24,2622.934,1254.638,2619.577,1235.714z"></path><path fill="#fff" d="M2625.501,1261.065c0.777-11.24-3.713-21.544-10.389-36.624
										c-0.482,27.31-57.051,29.513-66.85,13.793c0.057,10.756-3.378,23.641-1.834,39.304
										C2547.91,1292.564,2623.895,1284.314,2625.501,1261.065z"></path></g></g></g><g><g><path fill="#e3e3e3" d="M2122.069,1444.488c24.088-29.582,35.318-71.39,7.477-101.32
									c-23.747-25.527-51.014,12.548-74.295,38.501c-45.128,50.307-111.893,142.039-124.24,174.634
									c-5.532,14.604,34.918,42.385,70.548,21.924C2005.597,1575.907,2083.416,1491.956,2122.069,1444.488z"></path><path fill="#b0b0b0" d="M2070.88,1671.094c2.139,7.524,4.232,15.708,8.103,25.786
									c6.15,19.199-48.232,36.905-63.733,24.441c-4.671-7.379-11.342-15.086-18.076-24.913
									C1993.292,1690.741,2069.045,1664.642,2070.88,1671.094z"></path><path fill="#f0c7ad" d="M2092.773,1723.462c-10.299-19.716-29.536-48.116-29.536-48.116l-51.844,24.316
									c0,0,37.435,37.648,43.314,51.939C2054.894,1752.053,2094.869,1727.473,2092.773,1723.462z"></path><path fill="#ebebeb" d="M2073.13,1679.465c2.066,4.969-58.226,15.198-58.027,31.445
									c-18.635-29.441-87.105-126.468-84.829-150.846c1.914-20.498,52.186-22.207,83.303,6.013
									C2021.427,1573.195,2065.75,1661.718,2073.13,1679.465z"></path><path fill="#f7f7f7" d="M2067.979,1660.437c6.716,9.047,8.492,20.145,11.004,36.444
									c-15.136-22.737-63.96,5.917-63.733,24.441c-5.753-9.089-15.595-18.086-22.743-32.109
									C1985.651,1675.76,2054.087,1641.725,2067.979,1660.437z"></path></g><path fill="#f0c7ad" d="M2134.573,1790.467c-6.386-4.843-17.958-22.347-20.907-22.871
								c-11.892-1.887-18.066,21.826-10.592,34.73c9.641,16.645,18.368,25.989,19.524,31.703
								c3.068,15.173-35.487,9.642-48.132-12.912c-7.354-13.115-24.954-46.354-22.688-56.132c1.492-6.442-0.911-13.669-2.403-18.568
								c-5.943-19.509,34.128-46.798,39.13-36.185c4.659,9.693,9.254,14.324,17.588,17.577c15.55,6.068,28.511,25.633,29.347,30.016
								c1.833,9.599,12.03,23.205,17.043,27.876c1.32,1.229,1.47,3.327,0.22,4.627
								C2148.847,1794.336,2142.649,1796.591,2134.573,1790.467z"></path></g><g><g><g><polygon fill="#38afff" points="2670.585 1179.523 1904.823 1273.137 1949.667 1253.171 2715.429 1159.558"></polygon></g><g><polygon fill="#2895e0" points="2664.703 1233.437 1898.941 1327.05 1904.823 1273.137 2670.585 1179.523"></polygon></g><g><polygon fill="#196095" points="2703.672 1267.405 1937.91 1361.019 1898.941 1327.05 2664.703 1233.437"></polygon></g><g><polygon fill="#fac285" points="2715.429 1159.558 2670.585 1179.523 2664.703 1233.437 2815.318 1206.229 2815.624 1189.284"></polygon><path fill="#3ec200" d="M2847.709,1197.027l-32.086-7.743c-3.332,7.014-2.934,10.52-0.306,16.945l31.631-4.998
										C2846.452,1198.774,2847.709,1197.027,2847.709,1197.027z"></path></g><polygon fill="#d4a471" points="2815.318 1206.229 2664.703 1233.437 2703.672 1267.405 2820.33 1213.471"></polygon><path fill="#2a8500" d="M2846.949,1201.231l-31.631,4.998c1.162,3.17,1.801,4.861,5.012,7.241l27.923-10.35
									C2847.583,1202.621,2847.153,1201.988,2846.949,1201.231z"></path></g></g><g><defs><polygon id="c" points="2670.585 1179.523 2715.429 1159.558 1949.667 1253.171 1904.823 1273.137 1898.941 1327.05 1937.91 1361.019 2703.672 1267.405 2664.703 1233.437"></polygon></defs><clipPath id="d"><use overflow="visible" xlink:href="#c"></use></clipPath><path fill="#ccc" d="M2266.424,1336.242c-4.411-4.545-0.431-8.133-0.461-8.144
								c-1.958-0.783-5.84-10.911-5.915-14.222c-0.545-3.491-0.955-7.182-1.245-11.011c4.731-4.943,8.896-11.179,12.516-18.247
								c7.438,2.599,14.773-35.849,19.624-54.224c17.142-64.931,1.648-117.093-66.917-124.272
								c-38.145-3.995-84.319,11.907-94.784,51.721c-1.804,6.862-12.325,20.031-2.005,22.738c0.095-0.193,0.209-0.348,0.315-0.52
								c0.6,4.863,1.806,8.703,1.736,12.576c-0.206,11.422,0.015,32.562-0.424,43.649c-1.496,37.85,7.846,72.274,22.914,92.3v20.565
								h13.238c4.682,9.403,12.639,18.101,26.209,20.125c16.704,2.491,37.02-2.229,53.329-8.734
								c3.58-5.402,8.629-9.873,14.407-12.884C2261.822,1337.898,2257.254,1340.77,2266.424,1336.242z" clip-path="url(#d)"></path></g><g><g><g><g><g><g><g><g><path d="M2128.749,2465.987c-11.776,7.855-58.195,7.259-58.195,7.259l-12.539-16.188L2128.749,2465.987z"></path><polygon fill="#636363" points="2105.639 2483.06 2093.488 2477.347 2098.319 2470.397 2109.815 2473.762"></polygon><path fill="#fff" d="M2105.528,2483.092c0,0,41.065-21.972,47.638-34.539
															c1.545-2.954-0.656-22.382-0.656-22.382l-50.981,39.471L2105.528,2483.092z"></path><path fill="#fff" d="M1962.732,2501.238c-0.867-15.186,26.919-25.253,56.182-43.656
															c17.249-10.847,29.298-30.35,47.014-39.348c47.772-24.264,67.677-48.149,81.524-20.426s6.222,48.858-41.549,73.121
															c-21.536,10.938-39.549,35.954-66.685,47.087C2010.147,2529.943,1963.688,2517.998,1962.732,2501.238z"></path><path fill="#424242" d="M1962.041,2497.58c-6.814-12.889,24.148-26.6,56.86-46.279
															c16.458-9.901,42.149-32.264,48.981-47.232c22.248-48.743,65.032-37.642,78.879-9.918
															c13.847,27.724,5.64,47.407-42.131,71.67c-21.536,10.938-43.79,38.106-71.361,48.09
															C2007.558,2523.218,1970.099,2512.821,1962.041,2497.58z"></path></g><path fill="#d14c3a" d="M2060.953,2409.125c0.583,10.247,7.143-6.301,19.307,0.813
														c29.502,17.253,67.308,18.596,69.229-12.14c-14.661-112.759,0.057-190.529-17.951-245.385l96.869-339.549
														l-164.054-26.486c0,0-30.34,304.32-28.89,350.288C2037.432,2199.09,2053.86,2284.47,2060.953,2409.125z"></path><g><path fill="#636363" d="M2226.456,2493.885c1.61-3.206,0.738-44.728,0.738-44.728s68.649-35.415,74.923,31.613
															c1.139,12.169-9.239,20.276-17.974,31.753C2278.237,2511.246,2226.456,2493.885,2226.456,2493.885z"></path><path fill="#fff" d="M2280.495,2448.356c9.64,5.566,22.706,12.819,24.608,33.14
															c1.139,12.169-12.225,19.549-20.959,31.027c-0.038-0.027-0.105-0.062-0.149-0.09L2280.495,2448.356z"></path><g><path fill="#fff" d="M2182.965,2570.429c5.825,12.412,57.687,16.136,82.544-10.724
																c9.446-10.207,7.587-26.657,13.51-44.906c11.307-34.838,27.068-28.287,25.365-46.478
																c-6.275-67.027-74.314-33.45-74.314-33.45s-9.615,38.467-25.318,75.757
																C2191.837,2541.301,2175.208,2553.902,2182.965,2570.429z"></path><path fill="#424242" d="M2184.945,2568.864c15.948,8.457,59.251,4.571,80.085-17.941
																c9.446-10.206,7.586-26.657,13.51-44.906c11.307-34.838,27.069-28.287,25.365-46.478
																c-6.275-67.027-74.314-33.449-74.314-33.449s-9.615,38.466-25.318,75.757
																C2191.357,2532.517,2169.922,2560.897,2184.945,2568.864z"></path><path fill="#e85744" d="M2225.281,2439.999c-9.409-122.817-17.99-153.302-27.336-260.202
																c-11.523-131.792-55.284-337.762-48.568-352.823c13.062-29.292,155.97-25.331,163.069,4.329
																c14.816,61.901-25.063,215.159-14.859,356.145c11.106,98.48,2.756,223.49,2.003,254.128
																C2280.624,2460.865,2257.094,2429.573,2225.281,2439.999z"></path></g></g></g><g><g><g><g><g><g><path fill="#ccc" d="M2262.375,1349.151h-122.723v-21.672c38.862-19.492,76.574-26.489,114.144-11.468
																			c2.677,1.071,5.641,4.448,8.319,5.745C2266.166,1332.141,2267.376,1345.83,2262.375,1349.151z"></path><path fill="#f0c7ad" d="M2295.604,1736.458l12.17-340.227c-14.394-11.721-11.073-42.147-28.033-49.059
																			c-42.199-17.198-98.203-22.141-142.152-20.139c-14.331,0.653-28.942,31.363-43.071,41.164l-7.533,368.261
																			H2295.604z"></path><path fill="#ededed" d="M2057.976,1778.429c7.5-25.941,22.731-50.942,23.594-81.998
																			c1.325-47.667-1.54-101.354-3.618-146.546c-2.539-55.211-17.756-104.648-13.26-134.314
																			c2.771-18.286,15.786-74.416,71.067-83.856c-2.741,3.515-4.958,7.88-6.643,13.082
																			c-13.037,40.276,10.829,123.061,23.776,137.314l3.799,4.182l3.13-4.703c6.794-10.206,37.824-41.969,65.201-69.992
																			c36.692-37.558,51.155-52.833,56.225-60.016c18.382,6.748,50.953,22.861,61.193,30.446
																			c32.714,24.232-47.711,260.271-51.207,273.269c-12.421,46.2,3.375,120.448-2.997,160.777
																			C2277.636,1883.157,2043.241,1829.4,2057.976,1778.429z"></path><path fill="#8f457a" d="M2333.74,1373.705c-11.823-8.758-37.121-21.705-54.469-27.489
																			c-1.045,8.095-119.644,179.652-133.814,200.937l-21.613,233.057c0,0,16.3,97.692,28.285,105.283
																			c44.058,27.903,173.678-19.93,164.994-65.635c-8.128-42.78-18.772-121.914-13.181-174.094
																			c4.648-43.39,23.424-80.604,41.162-150.671C2355.779,1452.93,2368.69,1399.594,2333.74,1373.705z"></path><path fill="#8f3d79" d="M2123.477,1372.124c3.467-25.925,15.727-43.332,29.21-46.168
																			c-63.336-0.185-86.655,51.362-92.351,88.955c-8.383,55.331,23.035,211.264,12.189,279.711
																			c-4.454,28.107-9.962,71.369-21.711,90.461c1.633,32.574,25.329,75.987,43.659,58.278
																			c20.668-19.969,30.841-64.619,30.841-64.619l20.144-231.588
																			C2134.443,1535.03,2115.258,1433.576,2123.477,1372.124z"></path><path fill="#e3e3e3" d="M2132.647,1333.57c0,0,9.692-10.139,17.146-13.399
																			c13.606-5.953,41.767-9.567,41.767-9.567l0.476,21.66L2132.647,1333.57z"></path><path fill="#d9b49c" d="M2158.906,1216.881l-12.686,104.976c0,0,0.584,42.603,32.879,47.419
																			c33.533,5.001,81.767-19.019,82.532-28.329c-27.417-11.75-10.231-121.01-10.231-121.01L2158.906,1216.881z"></path><path fill="#fff" d="M2129.789 1380.116c-4.363-10.956-37.538 2.622-40.561 3.996-2.63-26.303 36.946-55.731 46.343-60.419 10.161-5.069 22.172-3.214 22.172-3.214C2140.212 1327.76 2132.432 1346.009 2129.789 1380.116zM2281.987 1400.215c-6.425-8.995-39.961-15.264-51.531-11.112 25.811-26.747 33.283-60.624 23.361-73.158 11.119 3.545 30.579 30.045 31.003 38.12C2285.631 1369.449 2281.987 1400.215 2281.987 1400.215z"></path><path fill="#fff" d="M2254.241,1386.12c-35.303,30.715-68.922,70.978-98.065,100.163
																			c23.459-28.846,44.568-68.723,74.804-97.403C2235.228,1386.915,2248,1384.835,2254.241,1386.12z"></path><path fill="#fff" d="M2113.863,1372.853c6.517,48.331,18,82.428,43.307,115.219
																			c-15.54-32.466-23.617-65.872-27.511-109.155C2126.999,1375.065,2119.891,1374.918,2113.863,1372.853z"></path><g><path fill="#ab9384" d="M2144.568,1550.603c0,0-0.308,14.072-1.447,35.122
																				c-0.679,10.515-1.218,22.805-2.252,35.933c-1.021,13.129-2.111,27.133-3.2,41.137
																				c-1.346,13.982-2.692,27.964-3.955,41.072c-1.237,13.11-2.844,25.307-3.991,35.781
																				c-2.515,20.929-4.653,34.842-4.653,34.842s0.3-14.073,1.441-35.122c0.681-10.515,1.206-22.806,2.254-35.932
																				c1.022-13.129,2.114-27.133,3.205-41.137c1.347-13.981,2.695-27.964,3.959-41.071
																				c1.251-13.109,2.844-25.307,3.993-35.781C2142.439,1564.517,2144.568,1550.603,2144.568,1550.603z"></path></g><g><g><path fill="#4a3d35" d="M2141.996,1586.546c3.777,2.18,6.831,7.47,6.819,11.838
																					c-0.012,4.34-3.086,6.091-6.863,3.911c-3.776-2.18-6.831-7.47-6.818-11.81
																					C2135.146,1586.118,2138.22,1584.366,2141.996,1586.546z"></path></g><g><path fill="#a8a8a8" d="M2139.203,1587.285c0.037-0.146,3.187,1.351,5.192,4.181
																					c0.904,1.439,1.579,2.99,1.965,4.185c0.346,1.217,0.364,2.064,0.364,2.064s-0.375-0.734-0.937-1.836
																					c-0.504-1.105-1.331-2.504-2.328-3.756C2141.793,1589.378,2139.203,1587.285,2139.203,1587.285z"></path></g></g><g><g><path fill="#4a3d35" d="M2134.049,1658.796c3.776,2.18,6.831,7.47,6.818,11.837
																					c-0.012,4.34-3.086,6.091-6.864,3.911c-3.776-2.18-6.83-7.47-6.818-11.81
																					C2127.198,1658.367,2130.272,1656.615,2134.049,1658.796z"></path></g><g><path fill="#a8a8a8" d="M2131.256,1659.534c0.037-0.146,3.187,1.351,5.192,4.181
																					c0.904,1.439,1.579,2.99,1.966,4.185c0.345,1.217,0.364,2.064,0.364,2.064s-0.375-0.734-0.938-1.836
																					c-0.505-1.105-1.331-2.504-2.327-3.756C2133.846,1661.628,2131.256,1659.534,2131.256,1659.534z"></path></g></g><g><g><path fill="#4a3d35" d="M2128.486,1741.119c3.777,2.181,6.831,7.471,6.818,11.838
																					c-0.012,4.34-3.086,6.092-6.863,3.911c-3.777-2.181-6.831-7.47-6.819-11.81
																					C2121.636,1740.69,2124.71,1738.938,2128.486,1741.119z"></path></g><g><path fill="#a8a8a8" d="M2125.693,1741.857c0.037-0.146,3.187,1.351,5.192,4.181
																					c0.904,1.439,1.579,2.99,1.966,4.186c0.345,1.217,0.364,2.063,0.364,2.063s-0.375-0.734-0.937-1.836
																					c-0.505-1.105-1.331-2.504-2.328-3.756C2128.283,1743.951,2125.693,1741.857,2125.693,1741.857z"></path></g></g><g><g><path fill="#4a3d35" d="M2144.38,1811.054c3.777,2.181,6.831,7.47,6.819,11.837
																					c-0.012,4.34-3.086,6.091-6.863,3.911c-3.777-2.18-6.831-7.47-6.818-11.81
																					C2137.53,1810.625,2140.604,1808.873,2144.38,1811.054z"></path></g><g><path fill="#a8a8a8" d="M2141.587,1811.792c0.037-0.146,3.187,1.351,5.192,4.181
																					c0.904,1.439,1.578,2.99,1.965,4.185c0.345,1.217,0.364,2.064,0.364,2.064s-0.375-0.734-0.937-1.835
																					c-0.505-1.106-1.331-2.505-2.328-3.756C2144.177,1813.886,2141.587,1811.792,2141.587,1811.792z"></path></g></g></g></g></g></g></g></g></g></g></g></g></g><g><g><g><path fill="#2b2b2b" d="M2126.217,1194.775l7.785,50.454c-1.836-11.898,4.413-31.655,16.231-45.941
											c-7.069-9.246-8.775-26.517-6.355-41.007C2132.059,1172.568,2124.381,1182.878,2126.217,1194.775L2126.217,1194.775z"></path></g></g><g><path fill="#f0c7ad" d="M2276.748,1218.633c-3.266,34.595-15.491,75.957-37.675,90.684
										c-23.229,15.421-41.163,37.325-68.892,37.44c-31.381,0.13-55.796-50.966-53.443-110.472
										c0.439-11.087,0.217-32.226,0.423-43.649c0.165-9.13-6.798-18.024,3.944-40.762c14.117-29.882,50.319-44.508,90.32-40.732
										C2280.266,1117.642,2283.28,1149.443,2276.748,1218.633z"></path><path fill="#734731" d="M2130.611,1317.859c3.183,17.695,13.734,25.348,29.531,29.591
										c37.801,10.155,69.688-23.319,85.193-42.412c8.792-10.828,3.852-62.918,3.852-62.918l-12.136,2.945
										c0,0,1.948,39.491-5.101,51.16c-9.671,16.008-48.8,50.989-74.693,34.494c-5.37-3.421-10.844-10.887-15.175-13.453
										C2136.356,1313.873,2132.618,1316.915,2130.611,1317.859z"></path><path fill="#734731" d="M2211.899,1106.121c-38.145-3.995-84.319,11.907-94.784,51.721
										c-1.804,6.862-12.325,20.031-2.005,22.738c5.56-11.298,31.031,14.256,56.481,13.609
										c24.483-0.623,30.716,3.302,58.512,26.622c5.711,4.791,6.872,21.55,6.867,25.806c2.757,1.109,6.288,2.471,10.556,4.717
										c3.129-10.976-0.113-28.118,9.863-27.668c10.337,0.467,10.613,15.311,7.887,27.988c-1.845,8.582-6.514,29.24-6.388,32.865
										c7.541,3.779,15.01-35.5,19.927-54.125C2295.958,1165.463,2280.464,1113.301,2211.899,1106.121z"></path><path fill="#734731" d="M2170.907,1177.918l-60.069-1.193c-4.802-9.224-3.703-32.134,0.151-43.495
										c5.996-17.673,27.979-10.488,45.685-18.437L2170.907,1177.918z"></path><g><path fill="#734731" d="M2166.651,1294.951c-4.743-14.186-20.002-27.105-34.052-27.256
											c-0.541-0.006,0.868,14.397,2.208,14.566c9.863,1.246,22.937,7.278,27.797,20.167
											C2166.492,1306.031,2169.341,1303.728,2166.651,1294.951z"></path></g><g><path fill="#734731" d="M2134.493,1317.173c-2.42-7.319-9.741-33.499,0.295-34.845
											c0.956-0.128-1.619-14.591-2.005-14.577c-16.725,0.588-8.736,41.229-1.71,52.006L2134.493,1317.173z"></path></g><path fill="#734731" d="M2170.707,1336.971l-9.768,2.01c-2.687-17.966,6.174-28.822-1.066-44.158l4.401-2.103
										C2171.361,1307.966,2167.048,1318.647,2170.707,1336.971z"></path></g></g></g><path fill="#d9d9d9" d="M2333.74,1373.705c-28.946,8.61-10.637,87.18,16.221,95.052
							c13.055,3.827,246.839-29.849,256.236-43.683c11.516-16.954-22.666-45.17-61.696-58.007
							C2540.077,1365.612,2351.162,1368.523,2333.74,1373.705z"></path><g><path fill="#d9d9d9" d="M2637.019,1176.949c5.993,10.728-15.443,22.886-40.902,21.527
								c-23.163-1.236-39.17-6-42.977-17.012c11.959-4.586,11.999-14.616,35.161-15.864
								C2611.464,1164.354,2631.821,1167.645,2637.019,1176.949z"></path><path fill="#d9d9d9" d="M2542.597,1186.613c6.627,0.439,16.692-5.738,16.427-8.461
								c-0.296-3.044-13.316-2.628-17.978-0.847c-1.765,0.675-4.699,2.956-4.889,4.345
								C2535.866,1183.79,2539.559,1186.412,2542.597,1186.613z"></path></g><path fill="#f0c7ad" d="M2639.444,1174.524c5.993,10.728-15.444,22.886-40.902,21.528
							c-23.163-1.237-39.17-6-42.977-17.012c-3.483-10.073,11.999-14.617,35.161-15.864
							C2613.889,1161.929,2634.247,1165.219,2639.444,1174.524z"></path><path fill="#f0c7ad" d="M2542.057,1185.673c6.627,0.439,16.692-5.738,16.428-8.461
							c-0.296-3.043-13.317-2.628-17.978-0.847c-1.765,0.675-4.699,2.956-4.889,4.345
							C2535.326,1182.849,2539.019,1185.472,2542.057,1185.673z"></path><g><g><path fill="#c24848" d="M1863.879,1267.625c-0.755,0.147-1.771,0.299-2.515,0.492
									c-1.118,0.289-2.602,0.71-3.686,1.11c-0.72,0.265-1.674,0.641-2.364,0.976c-1.074,0.521-2.484,1.265-3.509,1.878
									c-0.672,0.401-1.546,0.975-2.167,1.45c-1.046,0.801-2.401,1.921-3.382,2.798c-1.223,1.095-2.692,2.736-3.703,4.029
									c-1.023,1.308-2.311,3.12-3.137,4.56c-0.445,0.777-1.041,1.813-1.437,2.617c-0.551,1.12-1.285,2.618-1.716,3.789
									c-0.331,0.897-0.8,2.083-1.097,2.991c-0.356,1.09-0.817,2.549-1.076,3.666c-0.436,1.878-0.93,4.403-1.25,6.304
									c-0.178,1.052-0.321,2.471-0.406,3.535c-0.182,2.262-0.663,8.271,0.526,16.42c0.312,2.135,0.312,2.135,1.236,6.417
									c0.207,0.957,0.581,2.21,0.832,3.156c0.372,1.408,1.491,4.726,2.103,6.196c0.389,0.933,0.873,2.192,1.314,3.101
									c0.847,1.741,2.034,4.036,2.979,5.726c0.014,0.025,1.497,2.627,3.74,5.538c4.077,5.292,8.211,8.52,10.939,10.258
									c4.09,2.606,7.677,4.03,11.723,4.941c2.3,0.518,4.643,0.689,5.352,0.711c0.764,0.024,1.784,0.065,2.546,0.025
									c1.195-0.062,2.785-0.208,3.971-0.364c-7.709,1.191-16.208-2.78-23.604-12.163c-14.553-18.463-19.323-50.89-10.654-72.428
									C1849.7,1274.764,1856.42,1268.778,1863.879,1267.625z"></path><g><path fill="#e35554" d="M1845.437,1285.356c4.229-10.508,10.876-16.482,18.264-17.702
										c8.119-1.34,16.237-2.68,24.355-4.02c2.362-2.244,4.931-3.874,7.634-4.875c-2.684,1.33-3.182,3.789-6.719,4.724
										c0.254-0.042,0.508-0.084,0.763-0.126c-0.387,0.064-0.771,0.148-1.154,0.239c-0.244,0.057-0.479,0.156-0.72,0.223
										c0.017-0.016,0.034-0.031,0.051-0.048c-0.547,0.151-1.089,0.331-1.625,0.535c0.517-0.198,1.046-0.34,1.574-0.488
										c-3.292,3.191-6.171,7.582-8.418,13.164c-9.389,23.329-4.223,58.453,11.539,78.451c4.039,5.125,8.384,8.713,12.768,10.891
										c0.63-0.022,1.262-0.024,1.883-0.113c-0.256,0.037-0.51,0.073-0.766,0.11c3.609-0.175,4.845,1.959,7.726,2.453
										c-2.828-0.15-5.711-0.942-8.582-2.33c-8.165,1.176-16.329,2.352-24.494,3.528c-7.661,1.103-16.087-2.878-23.426-12.189
										C1841.539,1339.321,1836.769,1306.893,1845.437,1285.356z"></path></g><path fill="#fb0" d="M1879.551,1276.402c4.431-11.009,11.274-17.494,18.937-19.244
									c0.446-0.102,0.895-0.188,1.347-0.257c4.179-0.646,8.568,0.095,12.92,2.24c-0.484,0.035-0.966,0.088-1.444,0.162
									c-7.61,1.176-14.465,7.283-18.814,18.089c-8.844,21.973-3.978,55.054,10.868,73.89c7.545,9.573,16.216,13.623,24.081,12.408
									c0.475-0.074,0.948-0.166,1.418-0.278c-3.503,3.361-7.461,5.387-11.634,6.032c-0.451,0.069-0.906,0.123-1.362,0.161
									c-8.11,0.667-16.899-3.768-24.601-13.539C1875.263,1335.758,1870.016,1300.092,1879.551,1276.402z"></path><path fill="#ebab00" d="M1921.527,1253.549c-5.426,0.838-4.796,4.916-10.216,5.754
									c-7.61,1.176-14.465,7.283-18.814,18.089c-8.844,21.973-3.978,55.054,10.868,73.89c7.545,9.573,16.216,13.623,24.081,12.408
									c5.42-0.837,6.05,3.24,11.477,2.402c-8.479,1.31-17.827-3.057-25.962-13.377c-16.006-20.307-21.253-55.974-11.718-79.663
									C1905.932,1261.4,1913.323,1254.817,1921.527,1253.549z"></path><path fill="#fb0" d="M1901.243,1273.05c4.689-11.65,12.079-18.233,20.284-19.501
									c4.179-0.645,8.568,0.095,12.92,2.24c-0.482,0.035-0.961,0.087-1.438,0.161c-7.609,1.176-14.465,7.283-18.813,18.089
									c-8.844,21.973-3.978,55.054,10.868,73.89c7.545,9.572,16.216,13.624,24.081,12.408c0.474-0.073,0.944-0.165,1.411-0.277
									c-3.503,3.361-7.462,5.387-11.633,6.032c-8.479,1.31-17.827-3.057-25.962-13.377
									C1896.955,1332.406,1891.709,1296.74,1901.243,1273.05z"></path><path fill="#ebab00" d="M1943.226,1250.196c-5.42,0.838-4.79,4.915-10.216,5.754
									c-7.609,1.176-14.465,7.283-18.813,18.089c-8.844,21.973-3.978,55.054,10.868,73.89
									c7.545,9.572,16.216,13.624,24.081,12.408c5.426-0.839,6.056,3.24,11.477,2.401c-8.479,1.31-17.827-3.057-25.962-13.378
									c-16.006-20.307-21.252-55.974-11.718-79.663C1927.631,1258.047,1935.021,1251.464,1943.226,1250.196z"></path><g><path fill="#fb0" d="M1922.942,1269.697c4.689-11.65,12.079-18.234,20.284-19.502
										c0.331-0.051,0.64-0.082,0.941-0.105c-0.097,0.009-0.192,0.017-0.29,0.028c0.237-0.028,0.471-0.064,0.708-0.084
										c0.998-0.154,1.829-0.143,2.557-0.029c2.983,0.144,6.03,0.964,9.058,2.465c-0.268,0.01-0.538,0.012-0.805,0.034
										c-0.423,0.035-0.844,0.085-1.262,0.149c-7.614,1.177-14.473,7.287-18.825,18.098c-8.849,21.985-3.98,55.086,10.875,73.932
										c7.549,9.578,16.225,13.631,24.094,12.416c0.418-0.065,0.834-0.144,1.248-0.239c0.261-0.059,0.519-0.137,0.778-0.209
										c-2.439,2.352-5.1,4.053-7.903,5.09c-0.658,0.325-1.443,0.584-2.436,0.738c-0.232,0.053-0.466,0.089-0.699,0.133
										c-0.223,0.045-0.443,0.086-0.635,0.121c0,0-0.007,0.002-0.01,0.002l0.006-0.001l-0.006,0.001
										c-8.479,1.31-17.827-3.057-25.962-13.378C1918.654,1329.053,1913.407,1293.386,1922.942,1269.697z"></path></g></g></g></g></g><g><g><polygon points="150 1923.959 550.475 1691.231 953.322 1923.807 552.847 2156.542" opacity=".07"></polygon><g><g><g><g><g><g><g><polygon fill="#d9d9d9" points="904.851 1866.232 904.72 1912.473 562.87 2111.135 563.001 2064.894"></polygon></g><g><polygon fill="#949494" points="563.001 2064.894 562.87 2111.135 218.839 1912.509 218.97 1866.268"></polygon></g><g><polygon fill="#f0f0f0" points="904.851 1866.232 563.001 2064.894 218.97 1866.268 560.82 1667.606"></polygon></g></g></g><g><g><path fill="#c2c2c2" d="M703.92,1903.923c-77.972,45.312-204.699,45.313-283.125,0.034
													c-39.493-22.801-59.217-52.716-59.132-82.586l-0.103,36.27c-0.085,29.869,19.639,59.785,59.133,82.586
													c78.426,45.279,205.153,45.279,283.125-0.034c38.721-22.502,58.111-51.959,58.195-81.458l0.103-36.27
													C762.032,1851.964,742.642,1881.421,703.92,1903.923z"></path><g><path fill="#fff" d="M703.053,1739.927c78.426,45.279,78.783,118.717,0.867,163.997
														c-77.972,45.312-204.699,45.313-283.125,0.034c-78.482-45.311-78.895-118.717-0.923-164.029
														C497.789,1694.648,624.572,1694.615,703.053,1739.927z"></path></g></g></g></g><g><g><path fill="#acacac" d="M693.165,1231.664l-5.656,641.887c10.23-9.062,17.215-19.031,20.788-29.355l5.656-641.887
												C710.38,1212.634,703.395,1222.602,693.165,1231.664z"></path><path fill="#a5a5a5" d="M426.47,1202.343l-5.655,641.887c3.745,10.293,10.73,20.261,21.118,29.356l5.656-641.887
												C437.2,1222.603,430.216,1212.635,426.47,1202.343z"></path><path fill="#dbdbdb" d="M652.997,1232.862c-5.812,3.378-8.718,7.801-8.73,12.223l-5.656,641.887
												c0.013-4.423,2.918-8.845,8.73-12.223c10.972-6.375,28.348-6.732,40.168-1.198l5.656-641.887
												C681.344,1226.13,663.969,1226.487,652.997,1232.862z"></path><path fill="#c9c9c9" d="M487.826,1232.863c-11.043-6.376-28.479-6.765-40.237-1.165l-5.656,641.887
												c11.758-5.6,29.194-5.211,40.237,1.165c5.918,3.416,8.874,7.902,8.861,12.38l5.656-641.887
												C496.7,1240.765,493.744,1236.28,487.826,1232.863z"></path><path fill="#bbb" d="M600.448 1268.271l-5.655 641.887c17.812-2.104 34.943-6.15 50.611-12.138l5.656-641.887C635.392 1262.121 618.261 1266.167 600.448 1268.271zM489.969 1256.166l-5.655 641.887c15.735 5.988 32.967 10.001 50.748 12.137l5.655-641.887C522.936 1266.167 505.704 1262.154 489.969 1256.166z"></path><path fill="#e4e4e4" d="M591.785,1257.784c-11.773-6.797-30.77-6.797-42.466,0
												c-5.068,2.945-7.897,6.667-8.602,10.519l-5.655,641.887c0.705-3.852,3.534-7.573,8.602-10.519
												c11.696-6.797,30.694-6.797,42.466-0.001c5.101,2.945,7.971,6.667,8.663,10.487l5.656-641.887
												C599.756,1264.451,596.886,1260.729,591.785,1257.784z"></path><g><path fill="#f8f8f8" d="M692.64,1138.387c10.388,9.095,17.373,19.063,21.119,29.356
													c-6.591,0.388-13.063,2.072-18.076,4.984c-11.696,6.797-11.634,17.801,0.138,24.598
													c5.101,2.945,11.536,4.596,18.132,4.984c-3.574,10.325-10.558,20.293-20.789,29.356
													c-11.821-5.534-29.196-5.178-40.168,1.198c-10.972,6.376-11.586,16.474-1.937,23.271
													c-15.668,5.988-32.799,10.034-50.611,12.137c-0.692-3.819-3.563-7.541-8.664-10.486c-11.772-6.797-30.77-6.797-42.466,0
													c-5.068,2.945-7.897,6.667-8.602,10.519c-17.781-2.136-35.013-6.149-50.748-12.137
													c9.628-6.829,8.901-16.927-2.143-23.303c-11.043-6.376-28.479-6.764-40.238-1.165
													c-10.388-9.094-17.373-19.063-21.119-29.355c6.647-0.421,13.063-2.071,18.132-5.017
													c11.696-6.797,11.634-17.801-0.138-24.598c-5.102-2.945-11.536-4.596-18.188-5.017
													c3.63-10.292,10.558-20.228,20.788-29.356c11.821,5.599,29.253,5.211,40.225-1.165
													c10.972-6.376,11.529-16.442,1.88-23.303c15.668-5.923,32.855-10.001,50.612-12.137
													c0.748,3.851,3.619,7.573,8.72,10.519c11.772,6.797,30.77,6.797,42.466,0c5.012-2.913,7.897-6.667,8.546-10.487
													c17.781,2.136,35.013,6.149,50.748,12.137c-9.628,6.829-8.845,16.895,2.198,23.271
													C663.502,1143.566,680.881,1143.986,692.64,1138.387z"></path></g></g></g></g><g><polygon fill="#ececec" points="693.103 1253.623 562.883 1329.299 447.501 1262.684 447.384 1304.175 562.765 1370.79 692.986 1295.114"></polygon><polygon fill="#ececec" points="447.384 1304.175 447.501 1262.684 426.334 1250.463 426.216 1291.953"></polygon><polygon fill="#ececec" points="692.986 1295.114 713.724 1283.062 713.842 1241.571 693.103 1253.623"></polygon></g></g></g></g><g><path fill="#bababa" d="M823.459,1100.021c-87.456-50.493-174.911-100.984-262.367-151.477
							c-0.085-0.049-0.217-16.646-0.225-17.627l318.617,183.954C877.323,1114.599,840.767,1110.014,823.459,1100.021z"></path><path fill="#b3b3b3" d="M561.093,948.544c-47.992,27.89-95.981,55.778-143.973,83.668
							c-4.103,2.384-9.574,5.564-13.677,7.948c-8.118,4.718-18.942,11.008-27.06,15.725c-21.324,12.392-42.647,24.784-63.971,37.176
							c-3.548,2.062-8.926,3.972-11.828,6.874c-17.302,10.055-54.095,14.666-56.263,14.938l316.546-183.956
							C560.875,931.901,561.008,948.593,561.093,948.544z"></path><g><ellipse cx="561.956" cy="1095.829" fill="#f8f8f8" rx="148.183" ry="255.828" transform="rotate(-89.84 561.928 1095.816)"></ellipse></g><g><polygon fill="#949494" points="562.938 1298.827 562.823 1339.229 244.207 1155.276 244.321 1114.873"></polygon></g><path fill="#f0f0f0" d="M817.782,1095.828c12.851,12.916,59.259,18.736,61.702,19.043l-316.546,183.956
							c-0.007-1.722-0.142-34.434-0.147-54.814L817.782,1095.828z"></path><g><polygon fill="#d9d9d9" points="879.484 1114.87 879.369 1155.273 562.823 1339.229 562.938 1298.827"></polygon></g><path fill="#d6d6d6" d="M562.79,1244.012c0.005,20.381,0.14,53.092,0.147,54.814l-318.617-183.953
							c2.444-0.306,48.886-6.127,61.81-19.043L562.79,1244.012z"></path></g><g><ellipse cx="559.331" cy="1089.865" fill="#d9d9d9" rx="80.169" ry="138.407" transform="rotate(-89.84 559.304 1089.853)"></ellipse></g><g><g><path fill="#ffdf71" d="M748.634,897.205c-0.103-1.316-0.259-2.631-0.443-3.945c-0.166-1.671-0.362-3.344-0.617-5.02
								c0.435,2.392,0.773,4.832,0.982,7.335c-0.283-5.601-0.751-11.65-1.573-16.493c-1.251-7.377-3.975-17.015-6.205-24.157
								c-1.154-3.696-3.095-8.511-4.857-11.959c-3.472-6.795-8.296-15.789-12.559-22.118c-3.525-5.235-8.707-11.911-12.974-16.561
								c-2.517-2.743-5.894-6.386-8.571-8.973c-3.195-3.086-7.541-7.123-10.989-9.924c-5.51-4.477-12.994-10.319-18.986-14.128
								c-3.617-2.299-8.41-5.417-12.131-7.542c-2.926-1.671-6.636-3.758-10.257-5.711c0.338,1.86,0.511,3.728,0.505,5.595
								c-0.535,2.774-0.428,5.485,0.221,8.16c-0.637-0.495-0.995-1.313-0.787-2.386c-2.248,11.601-11.19,22.827-26.776,31.573
								c-11.496,6.451-25.206,10.767-39.672,12.962c-15.31,2.324-31.466,2.273-46.742-0.135
								c-15.159-2.39-29.451-7.101-41.187-14.117c-14.58-8.716-22.897-19.603-24.998-30.785c-0.361-1.919-0.538-3.848-0.533-5.775
								c0.005-1.838,0.183-3.675,0.52-5.504c-2.533,1.301-5.121,2.647-7.714,4.102c-4.072,2.33-9.431,5.561-13.403,8.059
								c-2.425,1.525-5.574,3.689-7.912,5.344c-5.879,4.161-13.318,10.262-18.772,14.966c-2.805,2.419-6.317,5.905-8.894,8.567
								c-2.596,2.681-5.843,6.456-8.339,9.231c-2.517,2.798-5.486,6.861-7.697,9.907c-3.706,5.106-8.147,12.291-11.064,17.885
								c-3.012,5.777-6.616,13.73-8.649,19.919c-2.469,7.52-4.934,17.826-6.252,25.63c-1.01,5.978-1.175,14.099-1.482,20.154
								c-0.011,4.048,0.361,8.097,1.118,12.128c4.412,23.484,21.879,46.347,52.497,64.651
								c72.947,43.607,192.921,44.82,267.969,2.708c32.731-18.367,51.511-41.941,56.231-66.304c0.78-4.027,1.176-8.075,1.188-12.125
								C748.781,900.787,748.716,899.028,748.634,897.205z"></path><g><path fill="#fff" d="M471.267 760.878c.042-.076.084-.156.125-.225.119-.2.253-.43.391-.662-.068.11-.135.211-.204.328C471.479 760.485 471.373 760.679 471.267 760.878zM469.813 766.39c.002.148.009.311.016.474-.005-.64.011-1.352.104-1.911.093-.559.267-1.229.452-1.852-.168.539-.321 1.093-.408 1.57C469.885 765.18 469.807 765.872 469.813 766.39zM470.385 763.1c.129-.414.267-.821.396-1.17.119-.324.3-.7.487-1.052-.232.424-.468.939-.611 1.36C470.567 762.5 470.475 762.796 470.385 763.1zM496.829 725.752c-15.707 8.813-24.661 20.146-26.821 31.842 3.417-1.754 6.731-3.424 9.796-5.144C490.702 746.335 498.484 739.549 496.829 725.752zM469.839 767.472c.01.424.127.981.181 1.402-.085-.594-.16-1.347-.191-2.01C469.831 767.077 469.835 767.283 469.839 767.472zM477.4 754.03c.695-.511 1.668-1.128 2.404-1.579-.674.405-1.572.95-2.199 1.424C477.55 753.916 477.48 753.969 477.4 754.03zM474.378 756.673c.303-.307.614-.606.938-.916-.158.144-.315.291-.469.442C474.701 756.34 474.541 756.504 474.378 756.673zM475.338 755.736c-.007.007-.014.014-.021.021.813-.742 1.635-1.385 2.083-1.726l-.002.001C476.752 754.507 475.918 755.181 475.338 755.736zM471.783 759.991c.25-.405.494-.78.732-1.114-.012.016-.026.034-.038.05C472.245 759.225 472.006 759.613 471.783 759.991zM472.514 758.877c.296-.383.665-.882.974-1.238.256-.295.578-.643.889-.966C473.746 757.313 473.145 757.988 472.514 758.877z"></path></g><path fill="#f0d16b" d="M656.684,657.21c-51.972-31.069-137.449-31.932-190.918-1.929h0
								c-53.469,30.003-54.682,79.512-2.71,110.58c4.265,2.55,8.756,4.896,13.436,7.038c0.77-0.566,1.51-0.792,2.125-0.657
								c7.486,3.854,15.015,7.616,19.847,10.36c8.952,5.083-13.073-13.501-14.759-20.913c-3.059-13.447,4.505-27.513,22.579-37.656
								c30.376-17.045,78.935-16.554,108.46,1.096c17.085,10.213,24.053,23.934,21.006,36.986
								c-1.731,7.417-23.815,25.906-14.877,20.836c5.029-2.853,12.886-6.517,20.576-10.261c0.455,0.075,0.948,0.299,1.455,0.676
								c3.819-1.722,7.515-3.58,11.07-5.575C707.443,737.787,708.657,688.278,656.684,657.21z M465.882,765.509
								c-0.364-0.217-0.711-0.441-1.07-0.66c3.772,2.158,8.202,4.499,12.702,6.824C473.481,769.774,469.59,767.725,465.882,765.509z
								"></path><path fill="#fff" d="M478.925,772.342c2.037,0.872,4.724,2.107,6.791,2.906c3.11,1.204,7.285,2.74,10.457,3.768
								c9.622,3.12,18.512,4.931,18.601,4.949c2.79,0.564,6.514,1.3,9.324,1.759c3.054,0.499,7.137,1.111,10.214,1.432
								c2.981,0.312,6.956,0.751,9.948,0.927c4.589,0.271,10.717,0.551,15.314,0.564c6.779,0.019,13.557-0.26,20.148-0.828
								c11.324-0.977,19.671-2.598,19.754-2.615c2.666-0.522,6.226-1.194,8.872-1.808c3.041-0.705,7.091-1.682,10.079-2.586
								c4.447-1.346,10.315-3.342,14.681-4.929c2.252-0.819,5.18-2.105,7.366-3.087c0.668-0.304,1.531-0.098,2.43,0.571
								c-48.904,22.054-117.854,21.762-166.412-0.466C477.395,772.235,478.259,772.034,478.925,772.342z"></path><g><path fill="#b39b51" d="M747.644,914.54c-4.72,24.363-23.5,47.938-56.231,66.304
									c-75.048,42.112-195.021,40.899-267.968-2.708c-30.618-18.303-48.085-41.167-52.497-64.651
									c-0.757-4.031-1.13-8.08-1.118-12.128c0.087,6.758,0.71,15.756,1.165,22.5c0.132,1.962,0.516,4.56,0.792,6.507
									c1.327,9.368,3.822,21.788,6.521,30.857c1.766,5.934,4.398,13.766,6.543,19.575c1.568,4.244,3.982,9.779,5.826,13.91
									c2.311,5.176,5.783,11.898,8.457,16.896c2.014,3.765,5.011,8.611,7.163,12.299c2.581,4.424,6.501,10.03,9.43,14.232
									c2.248,3.225,5.41,7.411,7.822,10.517c2.487,3.204,5.811,7.223,8.615,10.498c6.357,7.373,14.738,14.318,25.17,20.554
									c54.571,32.622,144.322,33.529,200.464,2.026c10.732-6.022,19.434-12.799,26.149-20.039
									c0.888-0.985,1.791-1.982,2.592-2.888c3.091-3.496,6.93-8.399,9.825-12.058c3.561-4.5,11.277-15.151,17.404-25.386
									c2.921-4.879,6.609-11.509,9.236-16.552c2.057-3.95,4.609-9.319,6.37-13.41c2.486-5.775,5.513-13.6,7.6-19.531
									c1.547-4.395,3.185-10.395,4.503-14.865c1.953-6.626,3.852-15.681,4.774-22.527c1.289-9.562,2.175-22.417,2.581-32.057
									C748.82,906.465,748.425,910.514,747.644,914.54z"></path><path fill="#c2b076" d="M441.019,1068.988c-2.571-2.838-5.97-6.522-8.565-9.5c0.231,0.269,0.484,0.57,0.706,0.825
									c2.728,3.152,6.445,7.291,9.369,10.261c0.044,0.044,0.097,0.096,0.141,0.141L441.019,1068.988z"></path><path fill="#9c8d5f" d="M651.283,1089.342c-52.459,29.436-136.321,28.589-187.312-1.893
									c-7.853-4.694-14.429-9.827-19.81-15.243c4.18,4.184,9.298,9.108,13.35,12.883c2.357,2.196,5.634,4.98,8.129,7.019
									c1.907,1.558,4.456,3.628,6.403,5.136c1.985,1.537,4.662,3.549,6.702,5.013c2.274,1.63,7.005,5.022,13.507,8.933
									c0.584,0.351,1.371,0.806,1.959,1.151c35.414,20.443,92.634,20.8,128.572,0.633c7.619-4.302,15.74-9.795,24.138-16.324
									c2.378-1.849,5.496-4.383,7.802-6.32c2.163-1.817,4.972-4.325,7.093-6.191c2.801-2.464,6.409-5.894,9.038-8.541
									c0.815-0.82,1.709-1.749,2.588-2.657C667.509,1078.83,660.151,1084.365,651.283,1089.342z"></path></g><g><path fill="#e65c4e" d="M744.996,941.644l-3.198,14.135c-5.782,22.322-23.775,43.745-53.889,60.643
									c-73.117,41.028-190.004,39.847-261.074-2.638c-28.089-16.791-44.817-37.522-50.264-58.988
									c-1.585-7.288-3.609-17.031-4.78-24.397c3.333,24.43,20.837,48.383,52.623,67.384
									c72.396,43.278,191.464,44.481,265.945,2.687c33.943-19.046,52.768-43.736,56.353-69.065L744.996,941.644L744.996,941.644z"></path><path fill="#c95144" d="M674.355,1072.077c-6.074,6.219-13.767,12.043-23.073,17.265
									c-52.459,29.437-136.321,28.589-187.312-1.893c-8.235-4.922-15.108-10.317-20.625-16.026l-2.327-2.436
									c-2.706-2.986-6.354-6.932-8.989-9.981c6.372,7.426,14.804,14.42,25.304,20.696c54.571,32.622,144.322,33.529,200.464,2.026
									c11.674-6.551,20.976-13.987,27.897-21.951C682.325,1063.496,677.847,1068.473,674.355,1072.077L674.355,1072.077z"></path></g><path fill="#fff" d="M748.781 899.719c.027.894.054 1.788.051 2.696C748.834 901.517 748.816 900.618 748.781 899.719zM748.781 899.719c-.043-1.397-.111-2.783-.225-4.146.028.549.054 1.092.078 1.631C748.7 898.043 748.748 898.881 748.781 899.719z"></path><path fill="#b59d50" d="M648.471,768.268c0.114-0.849,3.009-28.756-26.76-44.261
								c-35.893-18.694-90.07-19.416-125.806,0.637c-35.786,25.274-27.232,40.384-26.294,42.228
								C483.827,794.815,648.78,815.263,648.471,768.268z"></path><path fill="#ff6756" d="M653.691 779.735c-.006 2.009-.202 4.018-.589 6.016-1.673-2.787-2.879-5.556-3.52-8.326.372-1.922.562-3.854.567-5.787C650.793 774.366 652.007 777.056 653.691 779.735L653.691 779.735zM466.22 785.227c-.376-2-.56-4.009-.555-6.017 1.699-2.67 2.928-5.353 3.588-8.078-.005 1.932.172 3.865.534 5.789C469.131 779.688 467.909 782.449 466.22 785.227L466.22 785.227z"></path><g><path fill="#ff6756" d="M398.719,838.475c0.052-18.191,9.247-36.344,27.526-51.948
									c12.39-9.93,12.626-10.119,20.522-15.385c-24.411,16.156-36.694,36.389-36.752,56.673
									C406.135,831.215,402.336,834.759,398.719,838.475L398.719,838.475z"></path><path fill="#ff6756" d="M399.668,848.765c-0.643-3.42-0.959-6.856-0.949-10.29
									c3.618-3.716,7.416-7.259,11.297-10.659c-0.009,3.194,0.285,6.389,0.882,9.569
									C407.04,841.032,403.264,844.819,399.668,848.765L399.668,848.765z"></path></g><path fill="#8f2c22" d="M617.818,789.552c-0.249-0.153-0.492-0.307-0.746-0.459
								c-30.875-18.457-81.654-18.97-113.418-1.146c-0.187,3.559-0.329,7.232-0.407,11.016
								c23.956-13.443,58.655-16.523,87.624-9.411H617.818z"></path><g><path fill="#ff6756" d="M653.101,785.75c-2.342,12.087-11.659,23.782-27.897,32.894
									c-37.232,20.892-96.751,20.29-132.941-1.343c-15.19-9.08-23.855-20.423-26.044-32.074c1.689-2.778,2.911-5.54,3.567-8.306
									c2.106,11.209,10.442,22.121,25.056,30.858c34.817,20.813,92.08,21.392,127.899,1.292
									c15.622-8.766,24.586-20.018,26.839-31.646C650.222,780.195,651.428,782.963,653.101,785.75L653.101,785.75z"></path><path fill="#ff6756" d="M710.827,804.738c1.759,8.314-2.085,30.302-2.7,33.479
									c-3.724,19.224-18.542,37.825-44.369,52.317c-59.216,33.228-153.88,32.271-211.438-2.137
									c-24.159-14.442-37.941-32.482-41.422-51.012c-3.858,3.648-7.633,7.434-11.23,11.381
									c3.743,19.926,18.564,39.326,44.543,54.856c61.895,37,163.692,38.029,227.37,2.298
									c27.772-15.584,43.707-35.587,47.712-56.259c0.662-3.417,4.762-22.884,2.688-30.781
									C718.781,814.334,714.447,808.399,710.827,804.738z"></path></g><g><path fill="#a6904a" d="M647.516,774.723c-0.363,0.724-0.947,1.637-1.408,2.303c-0.418,0.602-1.04,1.358-1.516,1.916
									c-0.605,0.708-2.161,2.282-3.762,3.493c-0.587,0.444-1.372,1.035-1.991,1.434c-0.436,0.281-1.011,0.666-1.455,0.934
									c-0.684,0.413-1.599,0.96-2.306,1.333c-1.168,0.616-2.743,1.405-3.939,1.967c-0.906,0.426-2.133,0.954-3.063,1.325
									c-1.067,0.426-2.489,0.995-3.574,1.373c-1.885,0.657-4.409,1.509-6.324,2.074c-4.832,1.426-8.217,2.195-11.832,2.983
									c-3.233,0.705-7.589,1.421-10.853,1.964c-23.501,3.567-48.303,3.489-71.753-0.208c0.581,0.09,1.202,0.218,1.845,0.396
									c0.482,0.134,0.976,0.296,1.474,0.493c-0.499-0.197-0.993-0.359-1.474-0.493c-0.643-0.178-1.263-0.306-1.845-0.396
									c-3.703-0.585-7.401-1.274-10.693-1.993c-5.726-1.251-9.366-2.308-10.345-2.602c-3.369-1.012-6.03-1.812-10.415-3.542
									c-3.857-1.522-6.492-2.932-7.907-3.689c-0.966-0.517-2.224-1.265-3.137-1.87c-1.55-1.027-1.55-1.027-3.287-2.388
									c-0.556-0.435-1.256-1.066-1.757-1.563c-0.609-0.605-1.383-1.451-1.939-2.106c-0.839-0.988-1.978-2.735-2.488-3.814
									c-0.241-0.511-0.586-1.184-0.768-1.719c-0.346-1.02-0.74-2.404-0.987-3.453c2.101,11.183,10.418,22.07,24.998,30.785
									c11.735,7.016,26.027,11.727,41.187,14.117c15.276,2.408,31.432,2.459,46.742,0.135
									c14.466-2.196,28.176-6.512,39.672-12.962c15.063-8.452,23.901-19.222,26.508-30.408
									C648.617,772.519,647.97,773.82,647.516,774.723z"></path></g><g><path fill="#ff6a59" d="M462.881,654.913c10.931-5.672,11.14-5.78,17.616-8.402
									c12.321-4.553,12.321-4.553,19.078-6.436c13.2-3.305,13.2-3.305,20.166-4.511c13.795-2.051,13.795-2.051,20.878-2.611
									c14.116-0.797,14.116-0.797,21.213-0.725c14.164,0.457,14.164,0.457,21.169,1.154c13.94,1.708,13.94,1.708,20.746,3.033
									c13.185,2.9,13.437,2.956,19.945,4.919c12.408,4.113,12.645,4.191,18.77,6.825c11.109,5.191,11.543,5.393,17.219,8.766
									c9.497,6.12,9.867,6.359,14.741,10.363c7.038,6.316,7.613,6.832,11.575,11.478c4.8,6.278,5.417,7.085,8.342,12.435
									c2.835,6.1,3.346,7.2,4.973,13.168c1.155,6.046,1.395,7.304,1.454,13.537c-0.459,6.163-0.555,7.446-2.106,13.447
									c-2.264,6.537-2.612,7.542-5.568,12.951c-4.332,6.766-4.785,7.473-8.887,12.175c-6.488,6.641-7.019,7.183-12.091,11.199
									c-8.913,6.42-9.261,6.671-15.225,10.049c-10.295,5.339-11.878,6.16-21.67,9.976c-12.556,4.29-12.556,4.29-19.364,6.021
									c-13.362,3.035-13.362,3.035-20.362,4.099c-23.501,3.567-48.303,3.489-71.752-0.208
									c-12.161-2.211-15.051-2.737-27.741-6.292c-12.429-4.12-12.667-4.199-18.79-6.832c-11.153-5.213-11.588-5.416-17.241-8.777
									c-9.575-6.176-9.949-6.417-14.753-10.371c-7.292-6.556-7.728-6.948-11.565-11.467c-5.011-6.577-5.535-7.265-8.311-12.387
									c-2.959-6.398-3.414-7.382-4.946-13.097c-1.16-6.103-1.401-7.373-1.449-13.506c0.447-6.084,0.54-7.35,2.114-13.49
									c2.145-6.235,2.532-7.358,5.598-13.021c4.133-6.478,4.664-7.311,8.916-12.216c6.386-6.549,6.908-7.084,12.097-11.206
									C456.337,658.704,456.856,658.33,462.881,654.913c0.71-0.398,1.695-0.344,2.885,0.368
									c-53.469,30.003-54.682,79.512-2.71,110.58c51.972,31.069,137.449,31.933,190.918,1.929
									c53.469-30.003,54.682-79.512,2.71-110.58c-51.972-31.069-137.449-31.932-190.918-1.929
									C464.576,654.569,463.591,654.514,462.881,654.913L462.881,654.913z"></path></g></g><g><path fill="#c45043" d="M612.912,735.289c-28.556-17.07-75.52-17.545-104.898-1.06c0,0.03-0.001,0.063,0,0.093
								c-1.927,1.073-3.776,2.212-5.535,3.427c0-0.019,0-0.038,0-0.056c-12.019,8.4-17.654,18.866-16.863,29.221
								c1.228-7.758,6.08-15.345,14.521-21.845l0.024,0.037c3.098-2.332,6.454-4.421,10.057-6.277l-0.033-0.072
								c29.569-15.242,74.972-14.364,102.867,2.312c12.402,7.414,19.307,16.733,20.759,26.26
								C634.754,755.865,627.814,744.197,612.912,735.289z"></path><path fill="#ff6756" d="M633.812 767.329c-.102 1.247-.295 2.492-.584 3.731-.03 1.76.046 3.729.202 5.886C634.173 773.76 634.301 770.533 633.812 767.329zM485.941 776.532c.168-2.156.255-4.124.235-5.884-.282-1.241-.465-2.487-.56-3.734C485.109 770.112 485.215 773.34 485.941 776.532z"></path></g><ellipse cx="448.433" cy="895.956" fill="#c2c2c2" rx="39.267" ry="59.934" transform="rotate(-70.956 448.447 895.942)"></ellipse><g><defs><path id="e" d="M748.634,897.205c-0.103-1.316-0.259-2.631-0.443-3.945c-0.166-1.671-0.362-3.344-0.617-5.02
									c0.435,2.392,0.773,4.832,0.982,7.335c-0.283-5.601-0.751-11.65-1.573-16.493c-1.251-7.377-3.975-17.015-6.205-24.157
									c-1.154-3.696-3.095-8.511-4.857-11.959c-3.472-6.795-8.296-15.789-12.559-22.118c-3.525-5.235-8.707-11.911-12.974-16.561
									c-2.517-2.743-5.894-6.386-8.571-8.973c-3.195-3.086-7.541-7.123-10.989-9.924c-5.51-4.477-12.994-10.319-18.986-14.128
									c-3.617-2.299-8.41-5.417-12.131-7.542c-2.926-1.671-6.636-3.758-10.257-5.711c0.338,1.86,0.511,3.728,0.505,5.595
									c-0.535,2.774-0.428,5.485,0.221,8.16c-0.637-0.495-0.995-1.313-0.787-2.386c-2.248,11.601-11.19,22.827-26.776,31.573
									c-11.496,6.451-25.206,10.767-39.672,12.962c-15.31,2.324-31.466,2.273-46.742-0.135
									c-15.159-2.39-29.451-7.101-41.187-14.117c-14.58-8.716-22.897-19.603-24.998-30.785c-0.361-1.919-0.538-3.848-0.533-5.775
									c0.005-1.838,0.183-3.675,0.52-5.504c-2.533,1.301-5.121,2.647-7.714,4.102c-4.072,2.33-9.431,5.561-13.403,8.059
									c-2.425,1.525-5.574,3.689-7.912,5.344c-5.879,4.161-13.318,10.262-18.772,14.966c-2.805,2.419-6.317,5.905-8.894,8.567
									c-2.596,2.681-5.843,6.456-8.339,9.231c-2.517,2.798-5.486,6.861-7.697,9.907c-3.706,5.106-8.147,12.291-11.064,17.885
									c-3.012,5.777-6.616,13.73-8.649,19.919c-2.469,7.52-4.934,17.826-6.252,25.63c-1.01,5.978-1.175,14.099-1.482,20.154
									c-0.011,4.048,0.361,8.097,1.118,12.128c4.412,23.484,21.879,46.347,52.497,64.651
									c72.947,43.607,192.921,44.82,267.969,2.708c32.731-18.367,51.511-41.941,56.231-66.304
									c0.78-4.027,1.176-8.075,1.188-12.125C748.781,900.787,748.716,899.028,748.634,897.205z"></path></defs><clipPath id="f"><use overflow="visible" xlink:href="#e"></use></clipPath><path fill="#c2c2c2" d="M737.679,949.699l-49.801,37.185
								c17.928-61.089-28.762-156.267-73.665-193.289l23.021-10.239C684.248,807.524,747.639,892.595,737.679,949.699z" clip-path="url(#f)"></path></g></g></g><g><g><g><g><g><ellipse cx="2235.386" cy="787.451" fill="#c4c4c4" rx="57.042" ry="37.596"></ellipse></g></g><g><g><g><path fill="#525252" d="M2194.527,825.252c23.102,12.963,60.033,12.59,82.488-0.833
											c11.043-6.601,16.528-15.13,16.504-23.635c-0.05,4.288-0.524,7.101-1.661,10.817c-0.413,1.352-1.097,3.117-1.71,4.391
											c-0.748,1.557-1.905,3.554-2.816,5.022c-0.916,1.476-2.399,3.272-3.536,4.586c-0.949,1.097-2.342,2.446-3.405,3.433
											c-3.116,2.895-6.743,5.124-8.109,5.964c-0.683,0.42-3.209,1.919-7.036,3.589c-2.935,1.281-5.494,2.085-7.187,2.617
											c-4.207,1.322-10.116,2.482-14.704,2.886c-1.113,0.098-2.596,0.249-3.712,0.285c-1.117,0.036-2.607,0.109-3.725,0.12
											c-1.119,0.011-2.612-0.031-3.731-0.045c-2.216-0.028-4.532-0.277-7.463-0.592c-3.719-0.4-10.181-1.716-14.832-3.368
											c-2.28-0.809-4.433-1.574-7.34-3c-3.209-1.574-4.868-2.581-7.167-4.116c-0.845-0.564-1.948-1.352-2.738-1.99
											c-1.167-0.944-2.673-2.265-3.78-3.279c-1.252-1.147-2.714-2.887-3.805-4.187c-1.662-1.981-4.442-6.274-5.894-10.305
											c-1.134-3.149-1.334-4.101-1.856-6.915c-0.212-1.146-0.314-2.574-0.382-3.905
											C2177.656,811.008,2183.535,819.084,2194.527,825.252z"></path><path fill="#858585" d="M2293.401,763.6l0.118,37.183c0.024,8.505-5.461,18.97-16.504,25.571
											c-22.455,13.424-59.386,13.797-82.488,0.834c-11.741-6.588-17.65-17.29-17.675-26.079l-0.118-37.183
											C2177.501,730.356,2294.146,727.202,2293.401,763.6z"></path><path fill="#787878" d="M2194.408,783.51c23.102,12.963,60.033,12.59,82.488-0.834
											c11.043-6.601,16.528-15.13,16.504-23.635l0.118,41.742c0.024,8.505-5.461,18.97-16.504,25.571
											c-22.455,13.424-59.386,13.797-82.488,0.834c-11.741-6.588-17.65-17.29-17.675-26.079l-0.118-41.742
											C2176.758,768.156,2182.667,776.921,2194.408,783.51z"></path><path fill="#85821c" d="M2190.838,778.667c25.119,14.095,65.275,13.689,89.692-0.906
											c10.601-6.337,16.49-14.307,17.706-22.452c-0.662,5.029-2.54,9.71-5.737,14.253c-1.135,1.612-3.313,4.254-5.719,6.396
											c-1.538,1.369-3.863,3.438-8.445,6.212c-1.268,0.767-3.957,2.299-7.722,3.934c-1.631,0.708-4.382,1.802-8.225,2.992
											c-1.159,0.359-4.319,1.284-8.606,2.123c-3.856,0.755-6.754,1.068-8.869,1.297c-2.776,0.3-9.8,0.847-18.173,0.172
											c-8.537-0.689-13.91-2.109-17.465-3.048c-4.012-1.06-10.009-3.32-13.096-4.935c-4.277-2.238-4.533-2.372-7.794-4.557
											c-0.999-0.669-3.565-2.584-5.255-4.187c-0.904-0.857-2.585-2.452-3.747-3.908c-0.508-0.636-1.207-1.469-1.669-2.139
											c-0.908-1.318-1.691-2.457-2.299-3.623c-1.48-2.841-1.88-3.842-2.754-6.721c-0.31-1.021-0.493-2.066-0.747-3.512
											c-0.108-0.616-0.168-1.451-0.233-2.073C2172.368,763.007,2178.769,771.895,2190.838,778.667z"></path><g opacity=".8"><path fill="#fd0" d="M2118.055,582.067c0.502-4.23,1.427-9.856,2.519-13.973
												c1.374-5.187,3.586-12.011,5.582-16.992c1.636-4.084,4.301-9.334,6.494-13.148
												c10.126-17.604,24.821-32.319,42.498-42.554c3.652-2.115,8.69-4.654,12.563-6.332c5.938-2.574,11.682-4.353,12.785-4.655
												c1.707-0.468,3.963-1.169,5.69-1.551c7.02-1.554,7.02-1.554,11.163-2.181c1.621-0.245,3.789-0.539,5.423-0.665
												c6.755-0.524,7.159-0.556,10.641-0.581c3.189-0.023,7.44,0.182,10.624,0.365c1.643,0.094,3.826,0.344,5.458,0.558
												c1.699,0.222,3.96,0.552,5.647,0.847c1.689,0.295,3.925,0.783,5.606,1.12c1.719,0.345,3.97,0.99,5.669,1.424
												c0.058,0.015,5.939,1.53,13.568,4.679c3.875,1.599,8.852,4.167,12.568,6.108c2.628,1.512,6.069,3.639,8.594,5.317
												c1.914,1.272,4.348,3.136,6.191,4.508c3.015,2.245,6.779,5.584,9.455,8.224c3.247,3.204,7.398,7.675,10.201,11.273
												c3.144,4.036,6.977,9.704,9.573,14.112c5.376,9.129,9.38,20.104,10.759,25.253c1.096,4.092,2.51,9.581,3.113,13.774
												c0.787,5.479,1.274,12.86,1.508,18.391c0.003,0.966-0.03,1.933-0.098,2.899c0.14,49.403-49.235,95.767-53.428,155.344
												c-0.614,8.722-6.564,17.359-17.893,24.132c-24.417,14.596-64.573,15.002-89.692,0.906
												c-12.069-6.772-18.47-15.659-19.157-24.685c-4.531-59.552-54.168-105.64-54.308-155.043
												c-0.073-0.966-0.111-1.932-0.114-2.899C2117.332,591.842,2117.561,586.236,2118.055,582.067z"></path><path fill="#ffe929" d="M2118.055,582.067c0.502-4.23,1.427-9.856,2.519-13.973
												c1.374-5.187,3.586-12.011,5.582-16.992c1.636-4.084,4.301-9.334,6.494-13.147
												c10.126-17.604,24.821-32.319,42.498-42.555c3.652-2.115,8.69-4.654,12.563-6.332c5.938-2.574,11.682-4.353,12.785-4.655
												c1.707-0.468,3.963-1.169,5.69-1.551c7.02-1.554,7.02-1.554,11.163-2.181c1.621-0.245,3.789-0.539,5.423-0.665
												c6.755-0.524,7.159-0.556,10.641-0.581c3.189-0.023,7.44,0.182,10.624,0.365c1.643,0.094,3.826,0.344,5.458,0.558
												c1.699,0.222,3.96,0.552,5.647,0.847c1.689,0.295,3.925,0.783,5.606,1.12c1.719,0.345,3.97,0.99,5.669,1.424
												c0.058,0.015,5.939,1.53,13.568,4.679c3.875,1.599,8.852,4.167,12.568,6.108c2.628,1.512,6.069,3.639,8.594,5.317
												c1.914,1.272,4.348,3.136,6.191,4.508c3.015,2.245,6.779,5.584,9.455,8.224c3.247,3.204,7.398,7.675,10.201,11.273
												c3.144,4.036,6.977,9.704,9.573,14.112c5.376,9.129,9.38,20.104,10.759,25.253c1.096,4.092,2.51,9.581,3.113,13.774
												c0.787,5.479,1.274,12.86,1.508,18.391c0.003,0.966-0.03,1.933-0.098,2.899c-1.136,16.136-12.143,32.116-33.103,44.645
												c-45.171,27.003-119.463,27.754-165.935,1.677c-22.327-12.529-34.171-28.97-35.441-45.668
												c-0.073-0.966-0.111-1.932-0.114-2.899C2117.332,591.842,2117.561,586.236,2118.055,582.067z"></path></g></g><path fill="#ebebeb" d="M2177.074,789.236c0.726,8.218,6.606,16.293,17.597,22.461
										c23.102,12.963,60.033,12.59,82.488-0.833c11.043-6.601,16.529-15.13,16.504-23.635c3.642,5.083,1.049,11.26-0.323,14.767
										c-2.04,5.213-8.161,11.819-16.181,16.613c-22.455,13.424-59.386,13.797-82.488,0.834c-7.52-4.22-12.028-8.729-15.88-14.33
										C2173.797,797.853,2175.08,788.938,2177.074,789.236z"></path><path fill="#e6e6e6" d="M2177.074,773.1c0.726,8.218,6.606,16.293,17.597,22.461
										c23.102,12.963,60.033,12.59,82.488-0.834c11.043-6.601,16.529-15.13,16.504-23.635c3.642,5.083,1.049,11.259-0.323,14.767
										c-2.04,5.213-8.161,11.819-16.181,16.613c-22.455,13.424-59.386,13.797-82.488,0.834c-7.52-4.22-12.028-8.729-15.88-14.33
										C2173.797,781.717,2175.08,772.802,2177.074,773.1z"></path><g opacity=".5"><path fill="#696969" d="M2243.515,788.624c-5.422,0.431-10.92,0.463-16.351,0.082l-22.227-219.33
											c-0.107-1.064,0.667-2.014,1.731-2.121c1.075-0.111,2.015,0.667,2.122,1.732l22.216,219.229l8.628,0.233l22.707-186.361
											c0.129-1.062,1.092-1.809,2.156-1.688c1.062,0.13,1.817,1.095,1.688,2.157L2243.515,788.624z"></path><g><path fill="#9e9e9e" d="M2266.077,606.889l-0.418-0.242c-1.686-0.974-3.645-3.524-5.411-7.036
												c1.594-2.045,2.537-4.698,2.544-7.203c0.005-1.543-0.336-2.996-1.013-4.319c-0.532-1.039-1.547-2.499-3.363-3.546
												c-0.879-0.507-1.686-0.765-2.401-0.765c-0.597,0-1.143,0.182-1.576,0.526c-0.827,0.652-1.25,1.832-1.257,3.507
												c-0.007,2.478,0.911,6.155,2.471,9.933c-0.694,0.521-1.631,1.009-2.708,1.009c-0.635,0-1.263-0.175-1.863-0.522
												c-1.677-0.968-3.634-3.519-5.409-7.037c1.592-2.043,2.536-4.695,2.544-7.203c0.003-1.561-0.339-3.015-1.018-4.322
												c-0.514-1.025-1.518-2.479-3.348-3.536c-0.879-0.507-1.686-0.764-2.401-0.764c-0.597,0-1.143,0.182-1.576,0.526
												c-0.827,0.632-1.253,1.815-1.257,3.509c-0.007,2.476,0.911,6.153,2.471,9.931c-0.694,0.521-1.633,1.01-2.708,1.01
												c-0.636,0-1.263-0.176-1.863-0.523c-1.688-0.974-3.645-3.525-5.411-7.036c1.594-2.043,2.538-4.696,2.546-7.204
												c0.003-1.561-0.339-3.015-1.018-4.322c-0.525-1.033-1.539-2.491-3.358-3.542c-0.877-0.507-1.683-0.764-2.396-0.764
												c-0.605,0-1.153,0.186-1.583,0.54c-0.821,0.627-1.25,1.808-1.257,3.493c-0.006,2.465,0.916,6.143,2.481,9.936
												c-0.699,0.52-1.643,1.011-2.714,1.011c-0.632,0-1.257-0.175-1.855-0.521c-1.686-0.974-3.645-3.525-5.411-7.037
												c1.594-2.045,2.537-4.697,2.546-7.203c0.003-1.544-0.339-2.997-1.015-4.319c-0.529-1.037-1.542-2.495-3.361-3.546
												c-0.879-0.507-1.686-0.765-2.401-0.765c-0.597,0-1.143,0.183-1.576,0.526c-0.828,0.651-1.252,1.831-1.258,3.507
												c-0.007,2.479,0.913,6.157,2.473,9.933c-0.696,0.521-1.634,1.012-2.705,1.012c-0.635,0-1.263-0.177-1.866-0.525
												l-1.234-0.713l-0.032,4.303l0.418,0.242c1.188,0.686,2.421,1.034,3.661,1.034c1.287,0,2.573-0.383,3.763-1.114
												c1.468,2.696,4.036,6.696,7.152,8.495c1.182,0.682,2.407,1.028,3.643,1.028c1.291,0,2.58-0.385,3.771-1.123
												c1.464,2.7,4.029,6.701,7.15,8.505c1.184,0.683,2.415,1.03,3.655,1.03c1.292,0,2.58-0.384,3.77-1.119
												c1.458,2.696,4.015,6.692,7.141,8.497c1.184,0.684,2.414,1.031,3.655,1.031c1.292,0,2.581-0.385,3.771-1.12
												c1.464,2.7,4.029,6.702,7.149,8.505l1.234,0.713L2266.077,606.889z M2257.051,588.141
												c0.093,0.024,0.261,0.084,0.529,0.239c0.54,0.312,0.895,0.659,1.117,1.09c0.219,0.427,0.339,1.037,0.337,1.721
												c-0.003,1.099-0.321,2.319-0.88,3.459c-0.774-2.259-1.216-4.29-1.211-5.622
												C2256.944,588.526,2257.007,588.263,2257.051,588.141z M2242.48,579.73c0.094,0.023,0.263,0.085,0.533,0.242
												c0.532,0.307,0.897,0.663,1.117,1.09c0.219,0.426,0.339,1.036,0.337,1.72c-0.003,1.086-0.321,2.305-0.884,3.452
												c-0.777-2.266-1.222-4.297-1.219-5.621C2242.367,580.138,2242.43,579.861,2242.48,579.73z M2227.909,571.318
												c0.092,0.024,0.262,0.084,0.529,0.238c0.54,0.312,0.905,0.666,1.112,1.082c0.23,0.449,0.355,1.063,0.354,1.736
												c-0.003,1.091-0.323,2.31-0.888,3.452c-0.773-2.271-1.218-4.302-1.215-5.621
												C2227.802,571.703,2227.865,571.44,2227.909,571.318z M2213.344,562.908c0.093,0.023,0.261,0.084,0.529,0.239
												c0.54,0.311,0.893,0.657,1.117,1.09c0.22,0.429,0.341,1.039,0.337,1.72c-0.003,1.1-0.321,2.321-0.88,3.461
												c-0.772-2.255-1.214-4.286-1.211-5.622C2213.237,563.292,2213.3,563.029,2213.344,562.908z"></path></g></g><g><defs><path id="g" d="M2152.814,644.607c46.472,26.077,120.763,25.326,165.935-1.677
												c20.959-12.529,31.967-28.509,33.103-44.645c0.14,49.403-49.235,95.767-53.428,155.344
												c-0.614,8.722-6.564,17.359-17.893,24.132c-24.417,14.596-64.573,15.002-89.692,0.906
												c-12.069-6.772-18.47-15.659-19.157-24.685c-4.531-59.552-54.168-105.64-54.308-155.043
												C2118.643,615.636,2130.487,632.078,2152.814,644.607z"></path></defs><clipPath id="h"><use overflow="visible" xlink:href="#g"></use></clipPath><g clip-path="url(#h)" opacity=".75"><path fill="#fff" d="M2213.177,718.508c0.223-0.726,0.609-1.667,0.944-2.348
												c0.395-0.802,1.008-1.829,1.487-2.585c0.593-0.936,2.039-2.661,3.167-3.638c0.138-0.12,0.246-0.3,0.391-0.424
												c0.091,0.666,0.635,6.142,0.705,6.956c0.227,0.954,3.635,1.454,3.772-0.545c0.046-0.682-0.772-8.181-0.859-8.852
												c0.269-0.15,0.554-0.304,0.858-0.461c2.524-1.303,5.005-1.831,6.064-2.057c1.104-0.235,2.988-0.504,5.685-0.446
												c0.652,0.014,2.998,0.119,5.784,0.882c0.871,0.239,1.78,0.552,2.702,0.93c0.746,0.306,1.703,0.801,2.417,1.174
												c0.795,0.458,1.874,1.117,3.025,2.042c0.102,0.817-1.109,10.572-1.323,11.854c0.356,1.282,3.062,1.851,3.631,0.285
												c0.427-2.919,1.087-7.921,1.131-8.609c0.575,0.758,1.014,1.459,1.435,2.159c0.688,1.144,1.496,3.037,1.838,4.311
												c0.186,0.692,0.425,1.621,0.527,2.33c0.133,0.925,0.215,2.17,0.255,3.104c0.009,3.253-2.089,6.514-6.312,9.039
												c-8.588,5.134-22.712,5.276-31.547,0.319c-4.49-2.52-6.75-5.872-6.76-9.233
												C2212.245,721.967,2212.545,720.569,2213.177,718.508z"></path><path fill="#f0f0f0" d="M2218.957,733.928c8.835,4.958,22.959,4.815,31.547-0.319
												c4.223-2.525,6.321-5.786,6.312-9.039l0.195,68.831c0.009,3.253-2.089,6.514-6.312,9.039
												c-8.588,5.134-22.712,5.276-31.547,0.319c-4.49-2.52-6.75-5.872-6.76-9.233l-0.195-68.831
												C2212.206,728.056,2214.466,731.408,2218.957,733.928z"></path></g></g></g><ellipse cx="2287.876" cy="542.664" fill="#a6a6a6" rx="30.272" ry="46.128" transform="rotate(-51.097 2287.898 542.688)"></ellipse></g></g></g><g><g><path fill="#ffe929" d="M2231.557,349.875c2.351-1.358,4.234-0.256,4.241,2.417l0.202,71.086
								c0.008,2.673-1.863,5.912-4.214,7.27c-2.327,1.343-4.209,0.271-4.217-2.402l-0.201-71.087
								C2227.36,354.486,2229.23,351.218,2231.557,349.875z"></path></g><g><path fill="#ffe929" d="M2063.662,470.957c1.082-0.625,2.165-0.775,2.994-0.303l43.87,25
								c0.828,0.472,1.245,1.477,1.248,2.716c0.004,1.24-0.406,2.714-1.229,4.125c-0.823,1.425-1.897,2.521-2.972,3.142
								c-1.076,0.621-2.153,0.768-2.981,0.296l-43.895-24.985c-0.816-0.479-1.226-1.488-1.229-2.727
								c-0.003-1.239,0.4-2.71,1.21-4.114C2061.5,472.681,2062.58,471.582,2063.662,470.957z"></path></g><g><path fill="#ffe929" d="M2362.364,638.952c1.075-0.621,2.153-0.768,2.981-0.296l43.895,25.014
								c0.815,0.465,1.226,1.466,1.229,2.706c0.003,1.239-0.4,2.717-1.21,4.135c-0.823,1.425-1.903,2.524-2.985,3.149
								c-1.082,0.625-2.165,0.775-2.993,0.303l-43.87-25.029c-0.828-0.458-1.244-1.456-1.248-2.695
								c-0.003-1.24,0.406-2.721,1.229-4.146C2360.214,640.669,2361.288,639.573,2362.364,638.952z"></path></g><g><path fill="#ffe929" d="M2087.801,650.602c2.327-1.343,4.234-0.256,4.242,2.417c0.007,2.674-1.888,5.927-4.214,7.27
								l-61.864,35.717c-2.327,1.343-4.209,0.271-4.216-2.403c-0.008-2.673,1.862-5.941,4.189-7.284L2087.801,650.602z"></path></g><g><path fill="#ffe929" d="M2432.636,451.678c2.326-1.343,4.234-0.256,4.241,2.389c0.008,2.702-1.887,5.956-4.214,7.299
								l-61.864,35.717c-2.326,1.343-4.208,0.27-4.216-2.403c-0.008-2.673,1.862-5.941,4.188-7.284L2432.636,451.678z"></path></g><g><path fill="#ffe929" d="M2130.662,744.004c1.075-0.621,2.153-0.767,2.981-0.296c0.828,0.472,1.245,1.476,1.248,2.716
								c0.004,1.239-0.406,2.714-1.229,4.125l-43.585,75.521c-0.823,1.425-1.904,2.524-2.986,3.149
								c-1.082,0.625-2.165,0.775-2.993,0.303c-0.816-0.479-1.226-1.488-1.229-2.727c-0.004-1.24,0.399-2.711,1.21-4.114
								l43.61-75.535C2128.512,745.721,2129.586,744.625,2130.662,744.004z"></path></g><g><path fill="#ffe929" d="M2363.793,340.2c1.075-0.621,2.152-0.768,2.98-0.296c0.828,0.458,1.245,1.455,1.248,2.695
								c0.004,1.24-0.406,2.722-1.229,4.147l-43.584,75.492c-0.823,1.425-1.904,2.524-2.983,3.147
								c-1.079,0.623-2.156,0.769-2.971,0.29c-0.828-0.458-1.245-1.455-1.248-2.695c-0.003-1.24,0.406-2.721,1.229-4.146
								l43.585-75.492C2361.643,341.916,2362.718,340.821,2363.793,340.2z"></path></g></g></g><g><path fill="#b0b0b0" d="M1525.823,1861.097l0.122-171.735l-65.132,37.853l0.141-50.045l0.966-0.564l359.588-208.967
						l-0.141,50.045l-47.948,27.865l-0.126,175.902L1525.823,1861.097z M1529.853,1682.576l-0.122,171.835l239.658-135.24
						l0.126-175.872l47.956-27.864l0.114-41.002l-352.735,204.987l-0.114,41.002L1529.853,1682.576z"></path><g><g><path fill="#b0b0b0" d="M1797.995,1298.019l-3.866-0.547l0.099-0.781l3.883,0.398
								C1798.089,1297.379,1798.045,1297.699,1797.995,1298.019z"></path></g><g><path fill="#b0b0b0" d="M1544.75,1561.571c-0.324-0.229-0.644-0.461-0.959-0.705l2.282-3.164l0.993,0.724
								L1544.75,1561.571z"></path></g><g><path fill="#b0b0b0" d="M1795.797,1266.963c-0.032-0.717-0.067-1.437-0.133-2.175l-0.046-1.64l3.9-0.12
								c0.072,1.245,0.143,2.49,0.181,3.789L1795.797,1266.963z"></path></g><g><path fill="#b0b0b0" d="M1598.612,1581.735c-1.349,0-2.665-0.053-3.944-0.164c-0.564-0.088-1.13-0.134-1.546-0.164
								c-3.902-0.45-7.629-1.125-11.157-2.021c-1.21-0.294-2.716-0.724-4.079-1.121l-1.352-0.385
								c-1.677-0.549-3.759-1.266-5.293-1.872c-2.848-1.022-5.116-1.956-6.689-2.756c-3.174-1.548-7.314-3.744-10.776-5.719
								c-3.925-2.234-7.034-4.476-9.032-5.967l0.014-0.019c-0.185-0.13-0.37-0.263-0.555-0.397
								c-2.569-1.937-5.231-4.106-7.318-5.966c-1.885-1.708-4.518-4.152-6.409-6.149l-0.286-0.305
								c-2.396-2.577-5.377-5.783-7.446-8.639c-0.591-0.824-1.258-1.719-1.948-2.642c-1.348-1.811-2.779-3.733-3.873-5.429
								c-1.687-2.646-4.817-7.682-6.883-11.807c-1.174-2.276-3.374-6.668-4.773-10.259c-1.767-4.373-3.913-10.438-5.33-15.074
								c-2.082-6.71-4.182-16.767-5.349-25.615c-0.242-1.719-0.551-3.969-0.694-5.722l-0.162-2.749
								c-0.326-5.444-0.73-12.219-0.803-17.541l0.116-3.442c0.172-5.193,0.364-11.079,1.014-16.004
								c1.1-8.22,3.098-18.925,4.971-26.641c1.735-7.137,4.703-16.29,6.902-22.478c2.299-6.428,5.869-15.147,8.885-21.708
								c1.405-3.05,4.018-8.723,6.153-12.75l2.062-3.853c1.546-2.905,3.21-6.025,4.642-8.532c2.278-4.075,5.078-8.801,7.121-12.024
								c0.629-1.012,1.369-2.179,2.11-3.307l0.345-0.57c0.252-0.419,0.507-0.845,0.778-1.262
								c8.805-13.231,9.933-14.927,14.46-21.062c0.943-1.288,1.908-2.592,2.796-3.772c-0.231-0.105-0.566-0.24-1.064-0.427
								l-0.856-0.378c-5.368-2.463-5.928-2.72-9.075-5.135c-4.201-3.902-4.727-4.44-7.106-8.059
								c-2.503-4.699-2.935-5.518-4.249-10.286c-0.974-5.351-1.188-6.54-1.239-12.255c0.322-5.926,0.421-7.224,1.666-13.713
								l0.107-0.431c1.653-6.489,1.996-7.84,4.445-14.46l0.293-0.705c3.069-7.335,3.542-8.464,6.872-14.84l0.408-0.719
								c4.781-8.387,5.28-9.264,9.373-15.33c7.011-9.908,7.467-10.518,12.203-16.368l0.675-0.793
								c8.12-9.527,8.439-9.901,13.505-15.2c9.92-9.935,9.92-9.935,15.352-14.811c10.587-9.161,10.587-9.161,16.187-13.515
								c11.094-8.296,11.094-8.296,16.799-12.131c8.648-5.553,10.69-6.862,13.679-8.589l3.441-1.952
								c11.38-6.146,11.38-6.146,17.032-8.789c11.246-4.906,11.246-4.906,16.748-6.839l0.772-0.25
								c9.863-3.191,10.248-3.317,15.411-4.51c9.908-1.922,10.29-1.996,15.288-2.419c8.969-0.374,9.496-0.395,14.157,0.099
								c7.724,1.258,8.181,1.332,12.264,2.855l0.452,0.198c5.368,2.406,6.058,2.714,9.356,5.267
								c4.114,3.769,4.716,4.377,7.131,8.033c2.413,4.51,2.892,5.484,4.249,10.36c0.999,5.231,1.222,6.414,1.275,12.278
								c-0.355,6.008-0.435,7.373-1.668,13.683c-1.832,7.257-2.152,8.414-4.518,14.792l-0.356,0.852
								c-3.185,7.579-3.593,8.553-6.812,14.659c-5.202,9.167-5.69,10.002-9.739,16.052l-0.398,0.558
								c4.916,0.926,10.476,2.716,14.433,4.114c3.456,1.254,7.501,3.317,9.081,4.146c2.263,1.21,5.105,3.117,7.049,4.445
								c2.287,1.331,4.872,3.475,8.017,6.672c0.524,0.482,1.037,1.026,1.55,1.613c0.406,0.385,0.841,0.843,1.205,1.258
								c2.777,3.09,6.159,7.922,10.32,14.754c1.407,2.364,3.042,6.037,4.081,9.155c1.132,3.454,3.89,12.261,5.101,19.643
								c0.581,3.461,1.018,8.242,1.334,14.613l-0.082,0.006c0.048,0.478,0.088,0.961,0.118,1.445l0.032,0.728
								c0.061,1.409,0.118,2.756,0.151,4.035l-0.002,0.111c-0.244,7.688-0.852,19.39-1.826,29.178
								c-0.877,8.303-2.348,17.544-3.94,24.729l-0.948,4.319c-0.837,3.849-1.75,8.046-2.627,11.454
								c-1.639,6.349-4.064,15.003-6.037,21.534c-1.517,4.891-3.563,11.044-5.095,15.326c-2.059,5.779-5.025,13.629-7.379,19.538
								c-4.796,12.058-10.934,25.432-13.888,31.479l-1.178,2.394c-2.127,4.331-4.617,9.397-6.687,13.275
								c-0.297,0.587-0.64,1.22-0.987,1.856c-2.371,4.422-5.934,11.052-8.728,16.012c-1.039,1.773-1.7,2.932-2.227,3.851
								l-0.574,1.003c-2.066,3.614-4.981,8.471-7.247,12.085l-1.313,2.101c-1.437,2.299-3.034,4.857-4.346,6.893
								c-1.837,2.836-4.342,6.63-6.243,9.42c-6.82,10.057-13.334,18.902-19.351,26.286c-13.814,16.919-32.054,32.375-51.358,43.518
								C1629.609,1576.1,1612.352,1581.735,1598.612,1581.735z M1551.362,1561.465c1.294,0.858,2.751,1.769,4.346,2.676
								c3.397,1.937,7.453,4.091,10.587,5.619c1.454,0.74,3.572,1.609,6.321,2.596c1.525,0.599,3.523,1.285,5.059,1.792l1.294,0.366
								c1.308,0.381,2.755,0.797,3.936,1.083c3.38,0.858,6.933,1.502,10.583,1.922c0.438,0.03,1.142,0.099,1.66,0.183
								c13.364,1.159,31.41-4.346,50.657-15.459c18.905-10.915,36.762-26.046,50.285-42.611
								c5.945-7.293,12.388-16.042,19.149-26.008c1.887-2.772,4.369-6.534,6.191-9.344c1.298-2.021,2.886-4.56,4.314-6.843
								l1.317-2.108c2.242-3.572,5.124-8.38,7.169-11.955l0.57-0.995c0.53-0.93,1.201-2.101,2.232-3.858
								c2.766-4.906,6.309-11.506,8.597-15.772c0.414-0.762,0.741-1.369,1.041-1.956c2.07-3.877,4.537-8.902,6.645-13.191
								l1.176-2.394c2.928-5.989,9.012-19.245,13.768-31.2c2.337-5.871,5.282-13.671,7.327-19.409
								c1.517-4.239,3.542-10.328,5.04-15.158c1.954-6.47,4.361-15.063,5.987-21.366c0.867-3.364,1.767-7.507,2.593-11.308
								l0.953-4.34c1.561-7.045,3.006-16.123,3.868-24.275c0.961-9.659,1.563-21.227,1.807-28.852
								c-0.032-1.239-0.088-2.545-0.147-3.906l-0.031-0.694c-0.067-1.073-0.2-2.183-0.33-3.254c-0.141-1.477-0.309-2.884-0.509-4.31
								l0.419-0.069c-0.25-3.242-0.549-5.886-0.904-7.996c-1.168-7.12-3.856-15.697-4.956-19.056
								c-0.957-2.871-2.453-6.237-3.719-8.368c-4.024-6.605-7.265-11.248-9.897-14.176c-0.322-0.368-0.688-0.749-1.115-1.166
								c-0.53-0.597-0.955-1.045-1.439-1.496c-2.958-3.004-5.286-4.947-7.384-6.174c-1.984-1.352-4.708-3.178-6.79-4.291
								c-1.494-0.785-5.352-2.753-8.568-3.919c-3.378-1.193-9.821-3.324-14.843-4.136c-0.553-0.044-1.285-0.164-2.053-0.309
								l-3.025-0.566l3.988-5.553c4.033-6.029,4.449-6.761,9.527-15.711c3.111-5.901,3.513-6.859,6.639-14.296l0.326-0.776
								c2.274-6.14,2.549-7.125,4.339-14.209c1.159-5.949,1.229-7.131,1.569-12.806c-0.046-5.505-0.214-6.393-1.148-11.323
								c-1.266-4.552-1.607-5.191-3.822-9.346c-2.148-3.24-2.539-3.601-6.292-7.045c-2.806-2.161-3.122-2.304-8.437-4.685
								c-3.911-1.479-4.018-1.504-11.643-2.749c-4.264-0.45-4.603-0.442-13.24-0.078c-4.855,0.406-5.042,0.442-14.803,2.335
								c-5,1.155-5.189,1.216-15.089,4.419l-0.724,0.234c-5.32,1.872-5.32,1.872-16.389,6.698
								c-5.501,2.575-5.501,2.575-16.782,8.667l-3.347,1.898c-2.907,1.679-4.933,2.981-13.463,8.456
								c-5.61,3.772-5.61,3.772-16.597,11.986c-5.49,4.27-5.49,4.27-15.974,13.339c-5.326,4.781-5.326,4.781-15.141,14.613
								c-4.962,5.187-5.274,5.557-13.326,15.004l-0.644,0.755c-4.674,5.774-5.011,6.226-11.994,16.092
								c-3.986,5.907-4.479,6.773-9.191,15.044l-0.374,0.656c-3.221,6.167-3.685,7.274-6.698,14.477l-0.263,0.627
								c-2.348,6.353-2.644,7.52-4.293,13.995c-1.256,6.46-1.342,7.581-1.656,13.269c0.051,5.259,0.234,6.271,1.111,11.134
								c1.19,4.348,1.491,4.916,3.833,9.331c2.024,3.065,2.263,3.336,6.269,7.07c2.655,2.026,2.966,2.169,8.183,4.561l0.593,0.273
								c1.708,0.64,3.456,1.302,4.028,3.639l0.221,0.905l-0.566,0.741c-1.09,1.43-2.379,3.166-3.635,4.88
								c-4.474,6.063-5.598,7.752-14.344,20.894c-0.233,0.36-0.465,0.747-0.692,1.127l-0.398,0.658
								c-0.753,1.148-1.473,2.284-2.097,3.286c-2.019,3.183-4.775,7.836-7.03,11.87c-1.424,2.491-3.067,5.576-4.596,8.446
								l-2.064,3.858c-2.078,3.919-4.663,9.529-6.05,12.541c-2.972,6.466-6.49,15.063-8.753,21.388
								c-2.166,6.092-5.086,15.097-6.786,22.089c-1.844,7.598-3.812,18.139-4.895,26.233c-0.625,4.731-0.814,10.514-0.982,15.619
								l-0.116,3.362c0.073,5.128,0.475,11.853,0.797,17.259l0.16,2.711c0.133,1.643,0.435,3.801,0.667,5.467
								c1.125,8.528,3.219,18.566,5.211,24.99c1.39,4.548,3.49,10.488,5.227,14.784c1.344,3.45,3.475,7.701,4.626,9.931
								c1.996,3.988,5.046,8.894,6.687,11.468c1.047,1.62,2.425,3.465,3.719,5.204c0.707,0.946,1.388,1.861,1.986,2.695
								c1.922,2.65,4.813,5.761,7.137,8.258l0.273,0.294c1.796,1.895,4.348,4.266,6.172,5.921c1.971,1.754,4.605,3.904,7.038,5.734
								c1.167,0.854,2.425,1.643,3.719,2.325h0.002c0.002,0.004,0.004,0.004,0.006,0.004l-0.145,0.274
								c0.151,0.103,0.305,0.21,0.461,0.317l0.172-0.339l0.831,0.408L1551.362,1561.465z"></path></g></g></g></g></g></g></switch></svg>